<?xml version="1.0" encoding="UTF-8"?>
<svg xmlns="http://www.w3.org/2000/svg" width="1100" height="720" viewBox="0 0 1100 720">
  <rect width="100%" height="100%" fill="#ffffff" />
  <text x="550" y="34" text-anchor="middle" font-family="Arial, Helvetica, sans-serif" font-size="24" font-weight="700">CPU Time vs GPU Total Time</text>
  <text x="550" y="706" text-anchor="middle" font-family="Arial, Helvetica, sans-serif" font-size="16">Matrix Width</text>
  <text x="22" y="344" text-anchor="middle" transform="rotate(-90 22 344)" font-family="Arial, Helvetica, sans-serif" font-size="16">Time (ms)</text>
  <g font-family="Arial, Helvetica, sans-serif" fill="#111827">
    <line x1="92" y1="616" x2="1056" y2="616" stroke="#111827" />
    <line x1="92" y1="72" x2="92" y2="616" stroke="#111827" />
    
          <line x1="92" y1="616.00" x2="1056" y2="616.00" stroke="#e5e7eb" />
          <text x="82" y="621.00" text-anchor="end" font-size="13">0.01</text>
          <line x1="92" y1="480.00" x2="1056" y2="480.00" stroke="#e5e7eb" />
          <text x="82" y="485.00" text-anchor="end" font-size="13">0.15</text>
          <line x1="92" y1="344.00" x2="1056" y2="344.00" stroke="#e5e7eb" />
          <text x="82" y="349.00" text-anchor="end" font-size="13">2.24</text>
          <line x1="92" y1="208.00" x2="1056" y2="208.00" stroke="#e5e7eb" />
          <text x="82" y="213.00" text-anchor="end" font-size="13">33.44</text>
          <line x1="92" y1="72.00" x2="1056" y2="72.00" stroke="#e5e7eb" />
          <text x="82" y="77.00" text-anchor="end" font-size="13">500</text>
    
          <line x1="92.00" y1="616" x2="92.00" y2="622" stroke="#111827" />
          <text x="92.00" y="640" text-anchor="middle" font-size="13">4</text>
          <line x1="199.11" y1="616" x2="199.11" y2="622" stroke="#111827" />
          <text x="199.11" y="640" text-anchor="middle" font-size="13">8</text>
          <line x1="306.22" y1="616" x2="306.22" y2="622" stroke="#111827" />
          <text x="306.22" y="640" text-anchor="middle" font-size="13">16</text>
          <line x1="413.33" y1="616" x2="413.33" y2="622" stroke="#111827" />
          <text x="413.33" y="640" text-anchor="middle" font-size="13">32</text>
          <line x1="520.44" y1="616" x2="520.44" y2="622" stroke="#111827" />
          <text x="520.44" y="640" text-anchor="middle" font-size="13">64</text>
          <line x1="627.56" y1="616" x2="627.56" y2="622" stroke="#111827" />
          <text x="627.56" y="640" text-anchor="middle" font-size="13">128</text>
          <line x1="734.67" y1="616" x2="734.67" y2="622" stroke="#111827" />
          <text x="734.67" y="640" text-anchor="middle" font-size="13">256</text>
          <line x1="841.78" y1="616" x2="841.78" y2="622" stroke="#111827" />
          <text x="841.78" y="640" text-anchor="middle" font-size="13">512</text>
          <line x1="948.89" y1="616" x2="948.89" y2="622" stroke="#111827" />
          <text x="948.89" y="640" text-anchor="middle" font-size="13">1024</text>
          <line x1="1056.00" y1="616" x2="1056.00" y2="622" stroke="#111827" />
          <text x="1056.00" y="640" text-anchor="middle" font-size="13">2048</text>
    
          <path d="M 92.00 616.00 L 199.11 616.00 L 306.22 616.00 L 413.33 519.62 L 520.44 414.89 L 627.56 302.75 L 734.67 184.90 L 841.78 72.08 L 948.89 72.00 L 1056.00 72.00" fill="none" stroke="#dc2626" stroke-width="3" stroke-linejoin="round" stroke-linecap="round" />
          <circle cx="92.00" cy="616.00" r="4" fill="#dc2626" /><circle cx="199.11" cy="616.00" r="4" fill="#dc2626" /><circle cx="306.22" cy="616.00" r="4" fill="#dc2626" /><circle cx="413.33" cy="519.62" r="4" fill="#dc2626" /><circle cx="520.44" cy="414.89" r="4" fill="#dc2626" /><circle cx="627.56" cy="302.75" r="4" fill="#dc2626" /><circle cx="734.67" cy="184.90" r="4" fill="#dc2626" /><circle cx="841.78" cy="72.08" r="4" fill="#dc2626" /><circle cx="948.89" cy="72.00" r="4" fill="#dc2626" /><circle cx="1056.00" cy="72.00" r="4" fill="#dc2626" />
          <path d="M 92.00 72.00 L 199.11 458.29 L 306.22 458.19 L 413.33 455.85 L 520.44 443.46 L 627.56 439.20 L 734.67 403.24 L 841.78 328.21 L 948.89 247.79 L 1056.00 153.24" fill="none" stroke="#2563eb" stroke-width="3" stroke-linejoin="round" stroke-linecap="round" />
          <circle cx="92.00" cy="72.00" r="4" fill="#2563eb" /><circle cx="199.11" cy="458.29" r="4" fill="#2563eb" /><circle cx="306.22" cy="458.19" r="4" fill="#2563eb" /><circle cx="413.33" cy="455.85" r="4" fill="#2563eb" /><circle cx="520.44" cy="443.46" r="4" fill="#2563eb" /><circle cx="627.56" cy="439.20" r="4" fill="#2563eb" /><circle cx="734.67" cy="403.24" r="4" fill="#2563eb" /><circle cx="841.78" cy="328.21" r="4" fill="#2563eb" /><circle cx="948.89" cy="247.79" r="4" fill="#2563eb" /><circle cx="1056.00" cy="153.24" r="4" fill="#2563eb" />
          <path d="M 92.00 456.50 L 199.11 452.27 L 306.22 459.47 L 413.33 456.65 L 520.44 443.00 L 627.56 436.32 L 734.67 410.19 L 841.78 346.05 L 948.89 284.02 L 1056.00 198.24" fill="none" stroke="#16a34a" stroke-width="3" stroke-linejoin="round" stroke-linecap="round" />
          <circle cx="92.00" cy="456.50" r="4" fill="#16a34a" /><circle cx="199.11" cy="452.27" r="4" fill="#16a34a" /><circle cx="306.22" cy="459.47" r="4" fill="#16a34a" /><circle cx="413.33" cy="456.65" r="4" fill="#16a34a" /><circle cx="520.44" cy="443.00" r="4" fill="#16a34a" /><circle cx="627.56" cy="436.32" r="4" fill="#16a34a" /><circle cx="734.67" cy="410.19" r="4" fill="#16a34a" /><circle cx="841.78" cy="346.05" r="4" fill="#16a34a" /><circle cx="948.89" cy="284.02" r="4" fill="#16a34a" /><circle cx="1056.00" cy="198.24" r="4" fill="#16a34a" />
          <path d="M 199.11 457.99 L 306.22 456.66 L 413.33 451.99 L 520.44 455.36 L 627.56 417.24 L 734.67 412.74 L 841.78 357.99 L 948.89 294.71 L 1056.00 216.85" fill="none" stroke="#ea580c" stroke-width="3" stroke-linejoin="round" stroke-linecap="round" />
          <circle cx="199.11" cy="457.99" r="4" fill="#ea580c" /><circle cx="306.22" cy="456.66" r="4" fill="#ea580c" /><circle cx="413.33" cy="451.99" r="4" fill="#ea580c" /><circle cx="520.44" cy="455.36" r="4" fill="#ea580c" /><circle cx="627.56" cy="417.24" r="4" fill="#ea580c" /><circle cx="734.67" cy="412.74" r="4" fill="#ea580c" /><circle cx="841.78" cy="357.99" r="4" fill="#ea580c" /><circle cx="948.89" cy="294.71" r="4" fill="#ea580c" /><circle cx="1056.00" cy="216.85" r="4" fill="#ea580c" />
          <path d="M 306.22 457.41 L 413.33 458.53 L 520.44 452.83 L 627.56 432.19 L 734.67 410.90 L 841.78 359.42 L 948.89 299.64 L 1056.00 221.47" fill="none" stroke="#9333ea" stroke-width="3" stroke-linejoin="round" stroke-linecap="round" />
          <circle cx="306.22" cy="457.41" r="4" fill="#9333ea" /><circle cx="413.33" cy="458.53" r="4" fill="#9333ea" /><circle cx="520.44" cy="452.83" r="4" fill="#9333ea" /><circle cx="627.56" cy="432.19" r="4" fill="#9333ea" /><circle cx="734.67" cy="410.90" r="4" fill="#9333ea" /><circle cx="841.78" cy="359.42" r="4" fill="#9333ea" /><circle cx="948.89" cy="299.64" r="4" fill="#9333ea" /><circle cx="1056.00" cy="221.47" r="4" fill="#9333ea" />
          <path d="M 413.33 449.73 L 520.44 454.41 L 627.56 443.30 L 734.67 404.86 L 841.78 358.34 L 948.89 298.96 L 1056.00 220.71" fill="none" stroke="#0891b2" stroke-width="3" stroke-linejoin="round" stroke-linecap="round" />
          <circle cx="413.33" cy="449.73" r="4" fill="#0891b2" /><circle cx="520.44" cy="454.41" r="4" fill="#0891b2" /><circle cx="627.56" cy="443.30" r="4" fill="#0891b2" /><circle cx="734.67" cy="404.86" r="4" fill="#0891b2" /><circle cx="841.78" cy="358.34" r="4" fill="#0891b2" /><circle cx="948.89" cy="298.96" r="4" fill="#0891b2" /><circle cx="1056.00" cy="220.71" r="4" fill="#0891b2" />
    
        <g>
          <line x1="92" y1="666" x2="120" y2="666" stroke="#dc2626" stroke-width="4" />
          <text x="128" y="671" font-size="14">CPU Time</text>
        </g>
        <g>
          <line x1="282" y1="666" x2="310" y2="666" stroke="#2563eb" stroke-width="4" />
          <text x="318" y="671" font-size="14">GPU Total, Block 2</text>
        </g>
        <g>
          <line x1="472" y1="666" x2="500" y2="666" stroke="#16a34a" stroke-width="4" />
          <text x="508" y="671" font-size="14">GPU Total, Block 4</text>
        </g>
        <g>
          <line x1="662" y1="666" x2="690" y2="666" stroke="#ea580c" stroke-width="4" />
          <text x="698" y="671" font-size="14">GPU Total, Block 8</text>
        </g>
        <g>
          <line x1="852" y1="666" x2="880" y2="666" stroke="#9333ea" stroke-width="4" />
          <text x="888" y="671" font-size="14">GPU Total, Block 16</text>
        </g>
        <g>
          <line x1="92" y1="690" x2="120" y2="690" stroke="#0891b2" stroke-width="4" />
          <text x="128" y="695" font-size="14">GPU Total, Block 32</text>
        </g>
  </g>
</svg>
