<?xml version="1.0" encoding="UTF-8"?>
<svg xmlns="http://www.w3.org/2000/svg" width="1100" height="720" viewBox="0 0 1100 720">
  <rect width="100%" height="100%" fill="#ffffff" />
  <text x="550" y="34" text-anchor="middle" font-family="Arial, Helvetica, sans-serif" font-size="24" font-weight="700">GPU Processing Time by Block Size</text>
  <text x="550" y="706" text-anchor="middle" font-family="Arial, Helvetica, sans-serif" font-size="16">Matrix Width</text>
  <text x="22" y="344" text-anchor="middle" transform="rotate(-90 22 344)" font-family="Arial, Helvetica, sans-serif" font-size="16">GPU Processing Time (ms)</text>
  <g font-family="Arial, Helvetica, sans-serif" fill="#111827">
    <line x1="92" y1="616" x2="1056" y2="616" stroke="#111827" />
    <line x1="92" y1="72" x2="92" y2="616" stroke="#111827" />
    
          <line x1="92" y1="616.00" x2="1056" y2="616.00" stroke="#e5e7eb" />
          <text x="82" y="621.00" text-anchor="end" font-size="13">0.12</text>
          <line x1="92" y1="480.00" x2="1056" y2="480.00" stroke="#e5e7eb" />
          <text x="82" y="485.00" text-anchor="end" font-size="13">1.09</text>
          <line x1="92" y1="344.00" x2="1056" y2="344.00" stroke="#e5e7eb" />
          <text x="82" y="349.00" text-anchor="end" font-size="13">10.08</text>
          <line x1="92" y1="208.00" x2="1056" y2="208.00" stroke="#e5e7eb" />
          <text x="82" y="213.00" text-anchor="end" font-size="13">93.52</text>
          <line x1="92" y1="72.00" x2="1056" y2="72.00" stroke="#e5e7eb" />
          <text x="82" y="77.00" text-anchor="end" font-size="13">867.66</text>
    
          <line x1="92.00" y1="616" x2="92.00" y2="622" stroke="#111827" />
          <text x="92.00" y="640" text-anchor="middle" font-size="13">4</text>
          <line x1="199.11" y1="616" x2="199.11" y2="622" stroke="#111827" />
          <text x="199.11" y="640" text-anchor="middle" font-size="13">8</text>
          <line x1="306.22" y1="616" x2="306.22" y2="622" stroke="#111827" />
          <text x="306.22" y="640" text-anchor="middle" font-size="13">16</text>
          <line x1="413.33" y1="616" x2="413.33" y2="622" stroke="#111827" />
          <text x="413.33" y="640" text-anchor="middle" font-size="13">32</text>
          <line x1="520.44" y1="616" x2="520.44" y2="622" stroke="#111827" />
          <text x="520.44" y="640" text-anchor="middle" font-size="13">64</text>
          <line x1="627.56" y1="616" x2="627.56" y2="622" stroke="#111827" />
          <text x="627.56" y="640" text-anchor="middle" font-size="13">128</text>
          <line x1="734.67" y1="616" x2="734.67" y2="622" stroke="#111827" />
          <text x="734.67" y="640" text-anchor="middle" font-size="13">256</text>
          <line x1="841.78" y1="616" x2="841.78" y2="622" stroke="#111827" />
          <text x="841.78" y="640" text-anchor="middle" font-size="13">512</text>
          <line x1="948.89" y1="616" x2="948.89" y2="622" stroke="#111827" />
          <text x="948.89" y="640" text-anchor="middle" font-size="13">1024</text>
          <line x1="1056.00" y1="616" x2="1056.00" y2="622" stroke="#111827" />
          <text x="1056.00" y="640" text-anchor="middle" font-size="13">2048</text>
    
          <path d="M 92.00 72.00 L 199.11 615.62 L 306.22 612.96 L 413.33 610.61 L 520.44 606.33 L 627.56 601.43 L 734.67 560.28 L 841.78 461.02 L 948.89 337.45 L 1056.00 213.69" fill="none" stroke="#2563eb" stroke-width="3" stroke-linejoin="round" stroke-linecap="round" />
          <circle cx="92.00" cy="72.00" r="4" fill="#2563eb" /><circle cx="199.11" cy="615.62" r="4" fill="#2563eb" /><circle cx="306.22" cy="612.96" r="4" fill="#2563eb" /><circle cx="413.33" cy="610.61" r="4" fill="#2563eb" /><circle cx="520.44" cy="606.33" r="4" fill="#2563eb" /><circle cx="627.56" cy="601.43" r="4" fill="#2563eb" /><circle cx="734.67" cy="560.28" r="4" fill="#2563eb" /><circle cx="841.78" cy="461.02" r="4" fill="#2563eb" /><circle cx="948.89" cy="337.45" r="4" fill="#2563eb" /><circle cx="1056.00" cy="213.69" r="4" fill="#2563eb" />
          <path d="M 92.00 614.91 L 199.11 612.44 L 306.22 613.56 L 413.33 611.79 L 520.44 604.62 L 627.56 602.64 L 734.67 586.12 L 841.78 512.87 L 948.89 410.10 L 1056.00 285.28" fill="none" stroke="#16a34a" stroke-width="3" stroke-linejoin="round" stroke-linecap="round" />
          <circle cx="92.00" cy="614.91" r="4" fill="#16a34a" /><circle cx="199.11" cy="612.44" r="4" fill="#16a34a" /><circle cx="306.22" cy="613.56" r="4" fill="#16a34a" /><circle cx="413.33" cy="611.79" r="4" fill="#16a34a" /><circle cx="520.44" cy="604.62" r="4" fill="#16a34a" /><circle cx="627.56" cy="602.64" r="4" fill="#16a34a" /><circle cx="734.67" cy="586.12" r="4" fill="#16a34a" /><circle cx="841.78" cy="512.87" r="4" fill="#16a34a" /><circle cx="948.89" cy="410.10" r="4" fill="#16a34a" /><circle cx="1056.00" cy="285.28" r="4" fill="#16a34a" />
          <path d="M 199.11 616.00 L 306.22 611.53 L 413.33 608.64 L 520.44 613.40 L 627.56 591.15 L 734.67 593.53 L 841.78 550.79 L 948.89 442.71 L 1056.00 327.65" fill="none" stroke="#ea580c" stroke-width="3" stroke-linejoin="round" stroke-linecap="round" />
          <circle cx="199.11" cy="616.00" r="4" fill="#ea580c" /><circle cx="306.22" cy="611.53" r="4" fill="#ea580c" /><circle cx="413.33" cy="608.64" r="4" fill="#ea580c" /><circle cx="520.44" cy="613.40" r="4" fill="#ea580c" /><circle cx="627.56" cy="591.15" r="4" fill="#ea580c" /><circle cx="734.67" cy="593.53" r="4" fill="#ea580c" /><circle cx="841.78" cy="550.79" r="4" fill="#ea580c" /><circle cx="948.89" cy="442.71" r="4" fill="#ea580c" /><circle cx="1056.00" cy="327.65" r="4" fill="#ea580c" />
          <path d="M 306.22 610.41 L 413.33 614.22 L 520.44 609.85 L 627.56 601.04 L 734.67 594.59 L 841.78 558.03 L 948.89 460.38 L 1056.00 336.57" fill="none" stroke="#9333ea" stroke-width="3" stroke-linejoin="round" stroke-linecap="round" />
          <circle cx="306.22" cy="610.41" r="4" fill="#9333ea" /><circle cx="413.33" cy="614.22" r="4" fill="#9333ea" /><circle cx="520.44" cy="609.85" r="4" fill="#9333ea" /><circle cx="627.56" cy="601.04" r="4" fill="#9333ea" /><circle cx="734.67" cy="594.59" r="4" fill="#9333ea" /><circle cx="841.78" cy="558.03" r="4" fill="#9333ea" /><circle cx="948.89" cy="460.38" r="4" fill="#9333ea" /><circle cx="1056.00" cy="336.57" r="4" fill="#9333ea" />
          <path d="M 413.33 611.90 L 520.44 611.31 L 627.56 612.62 L 734.67 595.12 L 841.78 555.50 L 948.89 460.42 L 1056.00 335.41" fill="none" stroke="#0891b2" stroke-width="3" stroke-linejoin="round" stroke-linecap="round" />
          <circle cx="413.33" cy="611.90" r="4" fill="#0891b2" /><circle cx="520.44" cy="611.31" r="4" fill="#0891b2" /><circle cx="627.56" cy="612.62" r="4" fill="#0891b2" /><circle cx="734.67" cy="595.12" r="4" fill="#0891b2" /><circle cx="841.78" cy="555.50" r="4" fill="#0891b2" /><circle cx="948.89" cy="460.42" r="4" fill="#0891b2" /><circle cx="1056.00" cy="335.41" r="4" fill="#0891b2" />
    
        <g>
          <line x1="92" y1="666" x2="120" y2="666" stroke="#2563eb" stroke-width="4" />
          <text x="128" y="671" font-size="14">Block 2</text>
        </g>
        <g>
          <line x1="282" y1="666" x2="310" y2="666" stroke="#16a34a" stroke-width="4" />
          <text x="318" y="671" font-size="14">Block 4</text>
        </g>
        <g>
          <line x1="472" y1="666" x2="500" y2="666" stroke="#ea580c" stroke-width="4" />
          <text x="508" y="671" font-size="14">Block 8</text>
        </g>
        <g>
          <line x1="662" y1="666" x2="690" y2="666" stroke="#9333ea" stroke-width="4" />
          <text x="698" y="671" font-size="14">Block 16</text>
        </g>
        <g>
          <line x1="852" y1="666" x2="880" y2="666" stroke="#0891b2" stroke-width="4" />
          <text x="888" y="671" font-size="14">Block 32</text>
        </g>
  </g>
</svg>
