<?xml version="1.0" encoding="UTF-8"?>
<svg xmlns="http://www.w3.org/2000/svg" width="1100" height="720" viewBox="0 0 1100 720">
  <rect width="100%" height="100%" fill="#ffffff" />
  <text x="550" y="34" text-anchor="middle" font-family="Arial, Helvetica, sans-serif" font-size="24" font-weight="700">Transfer Time vs GPU Processing Time</text>
  <text x="550" y="58" text-anchor="middle" font-family="Arial, Helvetica, sans-serif" font-size="15">Block Size 16</text>
  <text x="550" y="706" text-anchor="middle" font-family="Arial, Helvetica, sans-serif" font-size="16">Matrix Width</text>
  <text x="22" y="344" text-anchor="middle" transform="rotate(-90 22 344)" font-family="Arial, Helvetica, sans-serif" font-size="16">Time (ms)</text>
  <g font-family="Arial, Helvetica, sans-serif" fill="#111827">
    <line x1="92" y1="616" x2="1056" y2="616" stroke="#111827" />
    <line x1="92" y1="72" x2="92" y2="616" stroke="#111827" />
    
          <line x1="92" y1="616.00" x2="1056" y2="616.00" stroke="#e5e7eb" />
          <text x="82" y="621.00" text-anchor="end" font-size="13">0</text>
          <line x1="92" y1="480.00" x2="1056" y2="480.00" stroke="#e5e7eb" />
          <text x="82" y="485.00" text-anchor="end" font-size="13">13.43</text>
          <line x1="92" y1="344.00" x2="1056" y2="344.00" stroke="#e5e7eb" />
          <text x="82" y="349.00" text-anchor="end" font-size="13">26.86</text>
          <line x1="92" y1="208.00" x2="1056" y2="208.00" stroke="#e5e7eb" />
          <text x="82" y="213.00" text-anchor="end" font-size="13">40.29</text>
          <line x1="92" y1="72.00" x2="1056" y2="72.00" stroke="#e5e7eb" />
          <text x="82" y="77.00" text-anchor="end" font-size="13">53.72</text>
    <text x="152.25" y="640" text-anchor="middle" font-size="13">16</text><text x="272.75" y="640" text-anchor="middle" font-size="13">32</text><text x="393.25" y="640" text-anchor="middle" font-size="13">64</text><text x="513.75" y="640" text-anchor="middle" font-size="13">128</text><text x="634.25" y="640" text-anchor="middle" font-size="13">256</text><text x="754.75" y="640" text-anchor="middle" font-size="13">512</text><text x="875.25" y="640" text-anchor="middle" font-size="13">1024</text><text x="995.75" y="640" text-anchor="middle" font-size="13">2048</text>
    <rect x="116.25" y="609.55" width="36.00" height="6.45" fill="#2563eb" /><rect x="236.75" y="609.48" width="36.00" height="6.52" fill="#2563eb" /><rect x="357.25" y="608.34" width="36.00" height="7.66" fill="#2563eb" /><rect x="477.75" y="604.01" width="36.00" height="11.99" fill="#2563eb" /><rect x="598.25" y="586.70" width="36.00" height="29.30" fill="#2563eb" /><rect x="718.75" y="601.57" width="36.00" height="14.43" fill="#2563eb" /><rect x="839.25" y="594.37" width="36.00" height="21.63" fill="#2563eb" /><rect x="959.75" y="533.87" width="36.00" height="82.13" fill="#2563eb" /><rect x="152.25" y="615.17" width="36.00" height="0.83" fill="#16a34a" /><rect x="272.75" y="615.22" width="36.00" height="0.78" fill="#16a34a" /><rect x="393.25" y="615.14" width="36.00" height="0.86" fill="#16a34a" /><rect x="513.75" y="614.99" width="36.00" height="1.01" fill="#16a34a" /><rect x="634.25" y="614.24" width="36.00" height="1.76" fill="#16a34a" /><rect x="754.75" y="609.37" width="36.00" height="6.63" fill="#16a34a" /><rect x="875.25" y="565.21" width="36.00" height="50.79" fill="#16a34a" /><rect x="995.75" y="112.30" width="36.00" height="503.70" fill="#16a34a" />
    
        <g>
          <line x1="92" y1="666" x2="120" y2="666" stroke="#2563eb" stroke-width="4" />
          <text x="128" y="671" font-size="14">Total Data Transfer Time</text>
        </g>
        <g>
          <line x1="282" y1="666" x2="310" y2="666" stroke="#16a34a" stroke-width="4" />
          <text x="318" y="671" font-size="14">GPU Processing Time</text>
        </g>
  </g>
</svg>
