<svg xmlns="http://www.w3.org/2000/svg" width="1100" height="720" viewBox="0 0 1100 720"><rect width="100%" height="100%" fill="#fff"/><text x="550" y="34" font-family="Arial, Helvetica, sans-serif" font-size="24" font-weight="700" text-anchor="middle">GPU Processing Time by Block Size</text><text x="550" y="706" font-family="Arial, Helvetica, sans-serif" font-size="16" text-anchor="middle">Matrix Width</text><text x="22" y="344" font-family="Arial, Helvetica, sans-serif" font-size="16" text-anchor="middle" transform="rotate(-90 22 344)">GPU Processing Time (ms)</text><g fill="#111827" font-family="Arial, Helvetica, sans-serif"><line x1="92" x2="1056" y1="616" y2="616" stroke="#111827"/><line x1="92" x2="92" y1="72" y2="616" stroke="#111827"/><line x1="92" x2="1056" y1="616" y2="616" stroke="#e5e7eb"/><text x="82" y="621" font-size="13" text-anchor="end">0.07</text><line x1="92" x2="1056" y1="480" y2="480" stroke="#e5e7eb"/><text x="82" y="485" font-size="13" text-anchor="end">0.61</text><line x1="92" x2="1056" y1="344" y2="344" stroke="#e5e7eb"/><text x="82" y="349" font-size="13" text-anchor="end">5.21</text><line x1="92" x2="1056" y1="208" y2="208" stroke="#e5e7eb"/><text x="82" y="213" font-size="13" text-anchor="end">44.68</text><line x1="92" x2="1056" y1="72" y2="72" stroke="#e5e7eb"/><text x="82" y="77" font-size="13" text-anchor="end">383.21</text><line x1="92" x2="92" y1="616" y2="622" stroke="#111827"/><text x="92" y="640" font-size="13" text-anchor="middle">4</text><line x1="199.11" x2="199.11" y1="616" y2="622" stroke="#111827"/><text x="199.11" y="640" font-size="13" text-anchor="middle">8</text><line x1="306.22" x2="306.22" y1="616" y2="622" stroke="#111827"/><text x="306.22" y="640" font-size="13" text-anchor="middle">16</text><line x1="413.33" x2="413.33" y1="616" y2="622" stroke="#111827"/><text x="413.33" y="640" font-size="13" text-anchor="middle">32</text><line x1="520.44" x2="520.44" y1="616" y2="622" stroke="#111827"/><text x="520.44" y="640" font-size="13" text-anchor="middle">64</text><line x1="627.56" x2="627.56" y1="616" y2="622" stroke="#111827"/><text x="627.56" y="640" font-size="13" text-anchor="middle">128</text><line x1="734.67" x2="734.67" y1="616" y2="622" stroke="#111827"/><text x="734.67" y="640" font-size="13" text-anchor="middle">256</text><line x1="841.78" x2="841.78" y1="616" y2="622" stroke="#111827"/><text x="841.78" y="640" font-size="13" text-anchor="middle">512</text><line x1="948.89" x2="948.89" y1="616" y2="622" stroke="#111827"/><text x="948.89" y="640" font-size="13" text-anchor="middle">1024</text><line x1="1056" x2="1056" y1="616" y2="622" stroke="#111827"/><text x="1056" y="640" font-size="13" text-anchor="middle">2048</text><path fill="none" stroke="#2563eb" stroke-linecap="round" stroke-linejoin="round" stroke-width="3" d="M 92.00 600.51 L 199.11 615.44 L 306.22 611.43 L 413.33 609.51 L 520.44 596.02 L 627.56 569.29 L 734.67 477.23 L 841.78 352.35 L 948.89 221.96 L 1056.00 72.00"/><circle cx="92" cy="600.51" r="4" fill="#2563eb"/><circle cx="199.11" cy="615.44" r="4" fill="#2563eb"/><circle cx="306.22" cy="611.43" r="4" fill="#2563eb"/><circle cx="413.33" cy="609.51" r="4" fill="#2563eb"/><circle cx="520.44" cy="596.02" r="4" fill="#2563eb"/><circle cx="627.56" cy="569.29" r="4" fill="#2563eb"/><circle cx="734.67" cy="477.23" r="4" fill="#2563eb"/><circle cx="841.78" cy="352.35" r="4" fill="#2563eb"/><circle cx="948.89" cy="221.96" r="4" fill="#2563eb"/><circle cx="1056" cy="72" r="4" fill="#2563eb"/><path fill="none" stroke="#16a34a" stroke-linecap="round" stroke-linejoin="round" stroke-width="3" d="M 92.00 615.73 L 199.11 616.00 L 306.22 613.52 L 413.33 609.17 L 520.44 610.47 L 627.56 596.11 L 734.67 536.08 L 841.78 435.05 L 948.89 305.60 L 1056.00 158.66"/><circle cx="92" cy="615.73" r="4" fill="#16a34a"/><circle cx="199.11" cy="616" r="4" fill="#16a34a"/><circle cx="306.22" cy="613.52" r="4" fill="#16a34a"/><circle cx="413.33" cy="609.17" r="4" fill="#16a34a"/><circle cx="520.44" cy="610.47" r="4" fill="#16a34a"/><circle cx="627.56" cy="596.11" r="4" fill="#16a34a"/><circle cx="734.67" cy="536.08" r="4" fill="#16a34a"/><circle cx="841.78" cy="435.05" r="4" fill="#16a34a"/><circle cx="948.89" cy="305.6" r="4" fill="#16a34a"/><circle cx="1056" cy="158.66" r="4" fill="#16a34a"/><path fill="none" stroke="#ea580c" stroke-linecap="round" stroke-linejoin="round" stroke-width="3" d="M 199.11 608.53 L 306.22 611.27 L 413.33 607.91 L 520.44 601.22 L 627.56 590.42 L 734.67 560.68 L 841.78 473.44 L 948.89 349.00 L 1056.00 201.94"/><circle cx="199.11" cy="608.53" r="4" fill="#ea580c"/><circle cx="306.22" cy="611.27" r="4" fill="#ea580c"/><circle cx="413.33" cy="607.91" r="4" fill="#ea580c"/><circle cx="520.44" cy="601.22" r="4" fill="#ea580c"/><circle cx="627.56" cy="590.42" r="4" fill="#ea580c"/><circle cx="734.67" cy="560.68" r="4" fill="#ea580c"/><circle cx="841.78" cy="473.44" r="4" fill="#ea580c"/><circle cx="948.89" cy="349" r="4" fill="#ea580c"/><circle cx="1056" cy="201.94" r="4" fill="#ea580c"/><path fill="none" stroke="#9333ea" stroke-linecap="round" stroke-linejoin="round" stroke-width="3" d="M 306.22 606.71 L 413.33 610.98 L 520.44 604.71 L 627.56 594.38 L 734.67 559.18 L 841.78 475.22 L 948.89 346.41 L 1056.00 201.21"/><circle cx="306.22" cy="606.71" r="4" fill="#9333ea"/><circle cx="413.33" cy="610.98" r="4" fill="#9333ea"/><circle cx="520.44" cy="604.71" r="4" fill="#9333ea"/><circle cx="627.56" cy="594.38" r="4" fill="#9333ea"/><circle cx="734.67" cy="559.18" r="4" fill="#9333ea"/><circle cx="841.78" cy="475.22" r="4" fill="#9333ea"/><circle cx="948.89" cy="346.41" r="4" fill="#9333ea"/><circle cx="1056" cy="201.21" r="4" fill="#9333ea"/><path fill="none" stroke="#0891b2" stroke-linecap="round" stroke-linejoin="round" stroke-width="3" d="M 413.33 606.68 L 520.44 598.91 L 627.56 589.76 L 734.67 558.84 L 841.78 477.12 L 948.89 345.02 L 1056.00 201.00"/><circle cx="413.33" cy="606.68" r="4" fill="#0891b2"/><circle cx="520.44" cy="598.91" r="4" fill="#0891b2"/><circle cx="627.56" cy="589.76" r="4" fill="#0891b2"/><circle cx="734.67" cy="558.84" r="4" fill="#0891b2"/><circle cx="841.78" cy="477.12" r="4" fill="#0891b2"/><circle cx="948.89" cy="345.02" r="4" fill="#0891b2"/><circle cx="1056" cy="201" r="4" fill="#0891b2"/><g><line x1="92" x2="120" y1="666" y2="666" stroke="#2563eb" stroke-width="4"/><text x="128" y="671" font-size="14">Block 2</text></g><g><line x1="282" x2="310" y1="666" y2="666" stroke="#16a34a" stroke-width="4"/><text x="318" y="671" font-size="14">Block 4</text></g><g><line x1="472" x2="500" y1="666" y2="666" stroke="#ea580c" stroke-width="4"/><text x="508" y="671" font-size="14">Block 8</text></g><g><line x1="662" x2="690" y1="666" y2="666" stroke="#9333ea" stroke-width="4"/><text x="698" y="671" font-size="14">Block 16</text></g><g><line x1="852" x2="880" y1="666" y2="666" stroke="#0891b2" stroke-width="4"/><text x="888" y="671" font-size="14">Block 32</text></g></g></svg>