<svg xmlns="http://www.w3.org/2000/svg" width="1100" height="720" viewBox="0 0 1100 720"><rect width="100%" height="100%" fill="#fff"/><text x="550" y="34" font-family="Arial, Helvetica, sans-serif" font-size="24" font-weight="700" text-anchor="middle">GPU Processing Time vs Block Size</text><text x="550" y="706" font-family="Arial, Helvetica, sans-serif" font-size="16" text-anchor="middle">Matrix Width</text><text x="22" y="344" font-family="Arial, Helvetica, sans-serif" font-size="16" text-anchor="middle" transform="rotate(-90 22 344)">GPU Processing Time (ms)</text><g fill="#111827" font-family="Arial, Helvetica, sans-serif"><line x1="92" x2="1056" y1="616" y2="616" stroke="#111827"/><line x1="92" x2="92" y1="72" y2="616" stroke="#111827"/><line x1="92" x2="1056" y1="616" y2="616" stroke="#e5e7eb"/><text x="82" y="621" font-size="13" text-anchor="end">0.17</text><line x1="92" x2="1056" y1="480" y2="480" stroke="#e5e7eb"/><text x="82" y="485" font-size="13" text-anchor="end">1.17</text><line x1="92" x2="1056" y1="344" y2="344" stroke="#e5e7eb"/><text x="82" y="349" font-size="13" text-anchor="end">8.06</text><line x1="92" x2="1056" y1="208" y2="208" stroke="#e5e7eb"/><text x="82" y="213" font-size="13" text-anchor="end">55.59</text><line x1="92" x2="1056" y1="72" y2="72" stroke="#e5e7eb"/><text x="82" y="77" font-size="13" text-anchor="end">383.21</text><line x1="92" x2="92" y1="616" y2="622" stroke="#111827"/><text x="92" y="640" font-size="13" text-anchor="middle">2</text><line x1="333" x2="333" y1="616" y2="622" stroke="#111827"/><text x="333" y="640" font-size="13" text-anchor="middle">4</text><line x1="574" x2="574" y1="616" y2="622" stroke="#111827"/><text x="574" y="640" font-size="13" text-anchor="middle">8</text><line x1="815" x2="815" y1="616" y2="622" stroke="#111827"/><text x="815" y="640" font-size="13" text-anchor="middle">16</text><line x1="1056" x2="1056" y1="616" y2="622" stroke="#111827"/><text x="1056" y="640" font-size="13" text-anchor="middle">32</text><path fill="none" stroke="#2563eb" stroke-linecap="round" stroke-linejoin="round" stroke-width="3" d="M 92.00 523.10 L 333.00 588.61 L 574.00 616.00 L 815.00 614.33 L 1056.00 613.95"/><circle cx="92" cy="523.1" r="4" fill="#2563eb"/><circle cx="333" cy="588.61" r="4" fill="#2563eb"/><circle cx="574" cy="616" r="4" fill="#2563eb"/><circle cx="815" cy="614.33" r="4" fill="#2563eb"/><circle cx="1056" cy="613.95" r="4" fill="#2563eb"/><path fill="none" stroke="#16a34a" stroke-linecap="round" stroke-linejoin="round" stroke-width="3" d="M 92.00 384.08 L 333.00 476.15 L 574.00 518.88 L 815.00 520.86 L 1056.00 522.98"/><circle cx="92" cy="384.08" r="4" fill="#16a34a"/><circle cx="333" cy="476.15" r="4" fill="#16a34a"/><circle cx="574" cy="518.88" r="4" fill="#16a34a"/><circle cx="815" cy="520.86" r="4" fill="#16a34a"/><circle cx="1056" cy="522.98" r="4" fill="#16a34a"/><path fill="none" stroke="#ea580c" stroke-linecap="round" stroke-linejoin="round" stroke-width="3" d="M 92.00 238.93 L 333.00 332.04 L 574.00 380.36 L 815.00 377.47 L 1056.00 375.92"/><circle cx="92" cy="238.93" r="4" fill="#ea580c"/><circle cx="333" cy="332.04" r="4" fill="#ea580c"/><circle cx="574" cy="380.36" r="4" fill="#ea580c"/><circle cx="815" cy="377.47" r="4" fill="#ea580c"/><circle cx="1056" cy="375.92" r="4" fill="#ea580c"/><path fill="none" stroke="#9333ea" stroke-linecap="round" stroke-linejoin="round" stroke-width="3" d="M 92.00 72.00 L 333.00 168.47 L 574.00 216.64 L 815.00 215.84 L 1056.00 215.60"/><circle cx="92" cy="72" r="4" fill="#9333ea"/><circle cx="333" cy="168.47" r="4" fill="#9333ea"/><circle cx="574" cy="216.64" r="4" fill="#9333ea"/><circle cx="815" cy="215.84" r="4" fill="#9333ea"/><circle cx="1056" cy="215.6" r="4" fill="#9333ea"/><g><line x1="92" x2="120" y1="666" y2="666" stroke="#2563eb" stroke-width="4"/><text x="128" y="671" font-size="14">Width 256</text></g><g><line x1="282" x2="310" y1="666" y2="666" stroke="#16a34a" stroke-width="4"/><text x="318" y="671" font-size="14">Width 512</text></g><g><line x1="472" x2="500" y1="666" y2="666" stroke="#ea580c" stroke-width="4"/><text x="508" y="671" font-size="14">Width 1024</text></g><g><line x1="662" x2="690" y1="666" y2="666" stroke="#9333ea" stroke-width="4"/><text x="698" y="671" font-size="14">Width 2048</text></g></g></svg>