<svg xmlns="http://www.w3.org/2000/svg" width="1100" height="720" viewBox="0 0 1100 720"><rect width="100%" height="100%" fill="#fff"/><text x="550" y="34" font-family="Arial, Helvetica, sans-serif" font-size="24" font-weight="700" text-anchor="middle">Speedup by Block Size</text><text x="550" y="706" font-family="Arial, Helvetica, sans-serif" font-size="16" text-anchor="middle">Matrix Width</text><text x="22" y="344" font-family="Arial, Helvetica, sans-serif" font-size="16" text-anchor="middle" transform="rotate(-90 22 344)">Speedup</text><g fill="#111827" font-family="Arial, Helvetica, sans-serif"><line x1="92" x2="1056" y1="616" y2="616" stroke="#111827"/><line x1="92" x2="92" y1="72" y2="616" stroke="#111827"/><line x1="92" x2="1056" y1="616" y2="616" stroke="#e5e7eb"/><text x="82" y="621" font-size="13" text-anchor="end">0</text><line x1="92" x2="1056" y1="480" y2="480" stroke="#e5e7eb"/><text x="82" y="485" font-size="13" text-anchor="end">187.96</text><line x1="92" x2="1056" y1="344" y2="344" stroke="#e5e7eb"/><text x="82" y="349" font-size="13" text-anchor="end">375.91</text><line x1="92" x2="1056" y1="208" y2="208" stroke="#e5e7eb"/><text x="82" y="213" font-size="13" text-anchor="end">563.87</text><line x1="92" x2="1056" y1="72" y2="72" stroke="#e5e7eb"/><text x="82" y="77" font-size="13" text-anchor="end">751.82</text><line x1="92" x2="92" y1="616" y2="622" stroke="#111827"/><text x="92" y="640" font-size="13" text-anchor="middle">4</text><line x1="199.11" x2="199.11" y1="616" y2="622" stroke="#111827"/><text x="199.11" y="640" font-size="13" text-anchor="middle">8</text><line x1="306.22" x2="306.22" y1="616" y2="622" stroke="#111827"/><text x="306.22" y="640" font-size="13" text-anchor="middle">16</text><line x1="413.33" x2="413.33" y1="616" y2="622" stroke="#111827"/><text x="413.33" y="640" font-size="13" text-anchor="middle">32</text><line x1="520.44" x2="520.44" y1="616" y2="622" stroke="#111827"/><text x="520.44" y="640" font-size="13" text-anchor="middle">64</text><line x1="627.56" x2="627.56" y1="616" y2="622" stroke="#111827"/><text x="627.56" y="640" font-size="13" text-anchor="middle">128</text><line x1="734.67" x2="734.67" y1="616" y2="622" stroke="#111827"/><text x="734.67" y="640" font-size="13" text-anchor="middle">256</text><line x1="841.78" x2="841.78" y1="616" y2="622" stroke="#111827"/><text x="841.78" y="640" font-size="13" text-anchor="middle">512</text><line x1="948.89" x2="948.89" y1="616" y2="622" stroke="#111827"/><text x="948.89" y="640" font-size="13" text-anchor="middle">1024</text><line x1="1056" x2="1056" y1="616" y2="622" stroke="#111827"/><text x="1056" y="640" font-size="13" text-anchor="middle">2048</text><path fill="none" stroke="#2563eb" stroke-linecap="round" stroke-linejoin="round" stroke-width="3" d="M 92.00 616.00 L 199.11 616.00 L 306.22 616.00 L 413.33 615.99 L 520.44 615.96 L 627.56 615.48 L 734.67 613.90 L 841.78 590.02 L 948.89 541.48 L 1056.00 542.64"/><circle cx="92" cy="616" r="4" fill="#2563eb"/><circle cx="199.11" cy="616" r="4" fill="#2563eb"/><circle cx="306.22" cy="616" r="4" fill="#2563eb"/><circle cx="413.33" cy="615.99" r="4" fill="#2563eb"/><circle cx="520.44" cy="615.96" r="4" fill="#2563eb"/><circle cx="627.56" cy="615.48" r="4" fill="#2563eb"/><circle cx="734.67" cy="613.9" r="4" fill="#2563eb"/><circle cx="841.78" cy="590.02" r="4" fill="#2563eb"/><circle cx="948.89" cy="541.48" r="4" fill="#2563eb"/><circle cx="1056" cy="542.64" r="4" fill="#2563eb"/><path fill="none" stroke="#16a34a" stroke-linecap="round" stroke-linejoin="round" stroke-width="3" d="M 92.00 616.00 L 199.11 616.00 L 306.22 616.00 L 413.33 615.99 L 520.44 615.95 L 627.56 615.46 L 734.67 613.58 L 841.78 556.21 L 948.89 352.36 L 1056.00 342.60"/><circle cx="92" cy="616" r="4" fill="#16a34a"/><circle cx="199.11" cy="616" r="4" fill="#16a34a"/><circle cx="306.22" cy="616" r="4" fill="#16a34a"/><circle cx="413.33" cy="615.99" r="4" fill="#16a34a"/><circle cx="520.44" cy="615.95" r="4" fill="#16a34a"/><circle cx="627.56" cy="615.46" r="4" fill="#16a34a"/><circle cx="734.67" cy="613.58" r="4" fill="#16a34a"/><circle cx="841.78" cy="556.21" r="4" fill="#16a34a"/><circle cx="948.89" cy="352.36" r="4" fill="#16a34a"/><circle cx="1056" cy="342.6" r="4" fill="#16a34a"/><path fill="none" stroke="#ea580c" stroke-linecap="round" stroke-linejoin="round" stroke-width="3" d="M 199.11 616.00 L 306.22 616.00 L 413.33 615.99 L 520.44 615.95 L 627.56 615.46 L 734.67 613.56 L 841.78 540.35 L 948.89 179.33 L 1056.00 112.30"/><circle cx="199.11" cy="616" r="4" fill="#ea580c"/><circle cx="306.22" cy="616" r="4" fill="#ea580c"/><circle cx="413.33" cy="615.99" r="4" fill="#ea580c"/><circle cx="520.44" cy="615.95" r="4" fill="#ea580c"/><circle cx="627.56" cy="615.46" r="4" fill="#ea580c"/><circle cx="734.67" cy="613.56" r="4" fill="#ea580c"/><circle cx="841.78" cy="540.35" r="4" fill="#ea580c"/><circle cx="948.89" cy="179.33" r="4" fill="#ea580c"/><circle cx="1056" cy="112.3" r="4" fill="#ea580c"/><path fill="none" stroke="#9333ea" stroke-linecap="round" stroke-linejoin="round" stroke-width="3" d="M 306.22 616.00 L 413.33 615.99 L 520.44 615.95 L 627.56 615.46 L 734.67 613.59 L 841.78 541.86 L 948.89 206.52 L 1056.00 119.77"/><circle cx="306.22" cy="616" r="4" fill="#9333ea"/><circle cx="413.33" cy="615.99" r="4" fill="#9333ea"/><circle cx="520.44" cy="615.95" r="4" fill="#9333ea"/><circle cx="627.56" cy="615.46" r="4" fill="#9333ea"/><circle cx="734.67" cy="613.59" r="4" fill="#9333ea"/><circle cx="841.78" cy="541.86" r="4" fill="#9333ea"/><circle cx="948.89" cy="206.52" r="4" fill="#9333ea"/><circle cx="1056" cy="119.77" r="4" fill="#9333ea"/><path fill="none" stroke="#0891b2" stroke-linecap="round" stroke-linejoin="round" stroke-width="3" d="M 413.33 615.99 L 520.44 615.96 L 627.56 615.46 L 734.67 613.57 L 841.78 541.39 L 948.89 184.71 L 1056.00 119.53"/><circle cx="413.33" cy="615.99" r="4" fill="#0891b2"/><circle cx="520.44" cy="615.96" r="4" fill="#0891b2"/><circle cx="627.56" cy="615.46" r="4" fill="#0891b2"/><circle cx="734.67" cy="613.57" r="4" fill="#0891b2"/><circle cx="841.78" cy="541.39" r="4" fill="#0891b2"/><circle cx="948.89" cy="184.71" r="4" fill="#0891b2"/><circle cx="1056" cy="119.53" r="4" fill="#0891b2"/><g><line x1="92" x2="120" y1="666" y2="666" stroke="#2563eb" stroke-width="4"/><text x="128" y="671" font-size="14">Block 2</text></g><g><line x1="282" x2="310" y1="666" y2="666" stroke="#16a34a" stroke-width="4"/><text x="318" y="671" font-size="14">Block 4</text></g><g><line x1="472" x2="500" y1="666" y2="666" stroke="#ea580c" stroke-width="4"/><text x="508" y="671" font-size="14">Block 8</text></g><g><line x1="662" x2="690" y1="666" y2="666" stroke="#9333ea" stroke-width="4"/><text x="698" y="671" font-size="14">Block 16</text></g><g><line x1="852" x2="880" y1="666" y2="666" stroke="#0891b2" stroke-width="4"/><text x="888" y="671" font-size="14">Block 32</text></g></g></svg>