<svg xmlns="http://www.w3.org/2000/svg" width="1100" height="720" viewBox="0 0 1100 720"><rect width="100%" height="100%" fill="#fff"/><text x="550" y="34" font-family="Arial, Helvetica, sans-serif" font-size="24" font-weight="700" text-anchor="middle">Transfer Time vs GPU Processing Time</text><text x="550" y="58" font-family="Arial, Helvetica, sans-serif" font-size="15" text-anchor="middle">Block Size 16</text><text x="550" y="706" font-family="Arial, Helvetica, sans-serif" font-size="16" text-anchor="middle">Matrix Width</text><text x="22" y="344" font-family="Arial, Helvetica, sans-serif" font-size="16" text-anchor="middle" transform="rotate(-90 22 344)">Time (ms)</text><g fill="#111827" font-family="Arial, Helvetica, sans-serif"><line x1="92" x2="1056" y1="616" y2="616" stroke="#111827"/><line x1="92" x2="92" y1="72" y2="616" stroke="#111827"/><line x1="92" x2="1056" y1="616" y2="616" stroke="#e5e7eb"/><text x="82" y="621" font-size="13" text-anchor="end">0</text><line x1="92" x2="1056" y1="480" y2="480" stroke="#e5e7eb"/><text x="82" y="485" font-size="13" text-anchor="end">13.43</text><line x1="92" x2="1056" y1="344" y2="344" stroke="#e5e7eb"/><text x="82" y="349" font-size="13" text-anchor="end">26.86</text><line x1="92" x2="1056" y1="208" y2="208" stroke="#e5e7eb"/><text x="82" y="213" font-size="13" text-anchor="end">40.29</text><line x1="92" x2="1056" y1="72" y2="72" stroke="#e5e7eb"/><text x="82" y="77" font-size="13" text-anchor="end">53.72</text><text x="152.25" y="640" font-size="13" text-anchor="middle">16</text><text x="272.75" y="640" font-size="13" text-anchor="middle">32</text><text x="393.25" y="640" font-size="13" text-anchor="middle">64</text><text x="513.75" y="640" font-size="13" text-anchor="middle">128</text><text x="634.25" y="640" font-size="13" text-anchor="middle">256</text><text x="754.75" y="640" font-size="13" text-anchor="middle">512</text><text x="875.25" y="640" font-size="13" text-anchor="middle">1024</text><text x="995.75" y="640" font-size="13" text-anchor="middle">2048</text><rect width="36" height="6.45" x="116.25" y="609.55" fill="#2563eb"/><rect width="36" height="6.52" x="236.75" y="609.48" fill="#2563eb"/><rect width="36" height="7.66" x="357.25" y="608.34" fill="#2563eb"/><rect width="36" height="11.99" x="477.75" y="604.01" fill="#2563eb"/><rect width="36" height="29.3" x="598.25" y="586.7" fill="#2563eb"/><rect width="36" height="14.43" x="718.75" y="601.57" fill="#2563eb"/><rect width="36" height="21.63" x="839.25" y="594.37" fill="#2563eb"/><rect width="36" height="82.13" x="959.75" y="533.87" fill="#2563eb"/><rect width="36" height=".83" x="152.25" y="615.17" fill="#16a34a"/><rect width="36" height=".78" x="272.75" y="615.22" fill="#16a34a"/><rect width="36" height=".86" x="393.25" y="615.14" fill="#16a34a"/><rect width="36" height="1.01" x="513.75" y="614.99" fill="#16a34a"/><rect width="36" height="1.76" x="634.25" y="614.24" fill="#16a34a"/><rect width="36" height="6.63" x="754.75" y="609.37" fill="#16a34a"/><rect width="36" height="50.79" x="875.25" y="565.21" fill="#16a34a"/><rect width="36" height="503.7" x="995.75" y="112.3" fill="#16a34a"/><g><line x1="92" x2="120" y1="666" y2="666" stroke="#2563eb" stroke-width="4"/><text x="128" y="671" font-size="14">Total Data Transfer Time</text></g><g><line x1="282" x2="310" y1="666" y2="666" stroke="#16a34a" stroke-width="4"/><text x="318" y="671" font-size="14">GPU Processing Time</text></g></g></svg>