<svg xmlns="http://www.w3.org/2000/svg" width="1100" height="720" viewBox="0 0 1100 720"><rect width="100%" height="100%" fill="#fff"/><text x="550" y="34" font-family="Arial, Helvetica, sans-serif" font-size="24" font-weight="700" text-anchor="middle">GPU Processing Time by Block Size</text><text x="550" y="706" font-family="Arial, Helvetica, sans-serif" font-size="16" text-anchor="middle">Matrix Width</text><text x="22" y="344" font-family="Arial, Helvetica, sans-serif" font-size="16" text-anchor="middle" transform="rotate(-90 22 344)">GPU Processing Time (ms)</text><g fill="#111827" font-family="Arial, Helvetica, sans-serif"><line x1="92" x2="1056" y1="616" y2="616" stroke="#111827"/><line x1="92" x2="92" y1="72" y2="616" stroke="#111827"/><line x1="92" x2="1056" y1="616" y2="616" stroke="#e5e7eb"/><text x="82" y="621" font-size="13" text-anchor="end">0.22</text><line x1="92" x2="1056" y1="480" y2="480" stroke="#e5e7eb"/><text x="82" y="485" font-size="13" text-anchor="end">1.02</text><line x1="92" x2="1056" y1="344" y2="344" stroke="#e5e7eb"/><text x="82" y="349" font-size="13" text-anchor="end">4.74</text><line x1="92" x2="1056" y1="208" y2="208" stroke="#e5e7eb"/><text x="82" y="213" font-size="13" text-anchor="end">21.94</text><line x1="92" x2="1056" y1="72" y2="72" stroke="#e5e7eb"/><text x="82" y="77" font-size="13" text-anchor="end">101.58</text><line x1="92" x2="92" y1="616" y2="622" stroke="#111827"/><text x="92" y="640" font-size="13" text-anchor="middle">4</text><line x1="199.11" x2="199.11" y1="616" y2="622" stroke="#111827"/><text x="199.11" y="640" font-size="13" text-anchor="middle">8</text><line x1="306.22" x2="306.22" y1="616" y2="622" stroke="#111827"/><text x="306.22" y="640" font-size="13" text-anchor="middle">16</text><line x1="413.33" x2="413.33" y1="616" y2="622" stroke="#111827"/><text x="413.33" y="640" font-size="13" text-anchor="middle">32</text><line x1="520.44" x2="520.44" y1="616" y2="622" stroke="#111827"/><text x="520.44" y="640" font-size="13" text-anchor="middle">64</text><line x1="627.56" x2="627.56" y1="616" y2="622" stroke="#111827"/><text x="627.56" y="640" font-size="13" text-anchor="middle">128</text><line x1="734.67" x2="734.67" y1="616" y2="622" stroke="#111827"/><text x="734.67" y="640" font-size="13" text-anchor="middle">256</text><line x1="841.78" x2="841.78" y1="616" y2="622" stroke="#111827"/><text x="841.78" y="640" font-size="13" text-anchor="middle">512</text><line x1="948.89" x2="948.89" y1="616" y2="622" stroke="#111827"/><text x="948.89" y="640" font-size="13" text-anchor="middle">1024</text><line x1="1056" x2="1056" y1="616" y2="622" stroke="#111827"/><text x="1056" y="640" font-size="13" text-anchor="middle">2048</text><path fill="none" stroke="#2563eb" stroke-linecap="round" stroke-linejoin="round" stroke-width="3" d="M 92.00 601.55 L 199.11 610.76 L 306.22 598.40 L 413.33 588.12 L 520.44 581.93 L 627.56 556.26 L 734.67 483.66 L 841.78 398.54 L 948.89 241.83 L 1056.00 72.00"/><circle cx="92" cy="601.55" r="4" fill="#2563eb"/><circle cx="199.11" cy="610.76" r="4" fill="#2563eb"/><circle cx="306.22" cy="598.4" r="4" fill="#2563eb"/><circle cx="413.33" cy="588.12" r="4" fill="#2563eb"/><circle cx="520.44" cy="581.93" r="4" fill="#2563eb"/><circle cx="627.56" cy="556.26" r="4" fill="#2563eb"/><circle cx="734.67" cy="483.66" r="4" fill="#2563eb"/><circle cx="841.78" cy="398.54" r="4" fill="#2563eb"/><circle cx="948.89" cy="241.83" r="4" fill="#2563eb"/><circle cx="1056" cy="72" r="4" fill="#2563eb"/><path fill="none" stroke="#16a34a" stroke-linecap="round" stroke-linejoin="round" stroke-width="3" d="M 92.00 604.68 L 199.11 616.00 L 306.22 600.71 L 413.33 591.49 L 520.44 575.81 L 627.56 557.54 L 734.67 497.53 L 841.78 430.58 L 948.89 300.43 L 1056.00 150.34"/><circle cx="92" cy="604.68" r="4" fill="#16a34a"/><circle cx="199.11" cy="616" r="4" fill="#16a34a"/><circle cx="306.22" cy="600.71" r="4" fill="#16a34a"/><circle cx="413.33" cy="591.49" r="4" fill="#16a34a"/><circle cx="520.44" cy="575.81" r="4" fill="#16a34a"/><circle cx="627.56" cy="557.54" r="4" fill="#16a34a"/><circle cx="734.67" cy="497.53" r="4" fill="#16a34a"/><circle cx="841.78" cy="430.58" r="4" fill="#16a34a"/><circle cx="948.89" cy="300.43" r="4" fill="#16a34a"/><circle cx="1056" cy="150.34" r="4" fill="#16a34a"/><path fill="none" stroke="#ea580c" stroke-linecap="round" stroke-linejoin="round" stroke-width="3" d="M 199.11 605.24 L 306.22 602.10 L 413.33 589.29 L 520.44 581.10 L 627.56 557.34 L 734.67 523.19 L 841.78 439.04 L 948.89 327.53 L 1056.00 192.35"/><circle cx="199.11" cy="605.24" r="4" fill="#ea580c"/><circle cx="306.22" cy="602.1" r="4" fill="#ea580c"/><circle cx="413.33" cy="589.29" r="4" fill="#ea580c"/><circle cx="520.44" cy="581.1" r="4" fill="#ea580c"/><circle cx="627.56" cy="557.34" r="4" fill="#ea580c"/><circle cx="734.67" cy="523.19" r="4" fill="#ea580c"/><circle cx="841.78" cy="439.04" r="4" fill="#ea580c"/><circle cx="948.89" cy="327.53" r="4" fill="#ea580c"/><circle cx="1056" cy="192.35" r="4" fill="#ea580c"/><path fill="none" stroke="#9333ea" stroke-linecap="round" stroke-linejoin="round" stroke-width="3" d="M 306.22 602.98 L 413.33 605.04 L 520.44 601.76 L 627.56 554.69 L 734.67 525.38 L 841.78 443.82 L 948.89 342.91 L 1056.00 197.49"/><circle cx="306.22" cy="602.98" r="4" fill="#9333ea"/><circle cx="413.33" cy="605.04" r="4" fill="#9333ea"/><circle cx="520.44" cy="601.76" r="4" fill="#9333ea"/><circle cx="627.56" cy="554.69" r="4" fill="#9333ea"/><circle cx="734.67" cy="525.38" r="4" fill="#9333ea"/><circle cx="841.78" cy="443.82" r="4" fill="#9333ea"/><circle cx="948.89" cy="342.91" r="4" fill="#9333ea"/><circle cx="1056" cy="197.49" r="4" fill="#9333ea"/><path fill="none" stroke="#0891b2" stroke-linecap="round" stroke-linejoin="round" stroke-width="3" d="M 413.33 602.37 L 520.44 596.68 L 627.56 560.70 L 734.67 541.23 L 841.78 455.58 L 948.89 342.84 L 1056.00 211.06"/><circle cx="413.33" cy="602.37" r="4" fill="#0891b2"/><circle cx="520.44" cy="596.68" r="4" fill="#0891b2"/><circle cx="627.56" cy="560.7" r="4" fill="#0891b2"/><circle cx="734.67" cy="541.23" r="4" fill="#0891b2"/><circle cx="841.78" cy="455.58" r="4" fill="#0891b2"/><circle cx="948.89" cy="342.84" r="4" fill="#0891b2"/><circle cx="1056" cy="211.06" r="4" fill="#0891b2"/><g><line x1="92" x2="120" y1="666" y2="666" stroke="#2563eb" stroke-width="4"/><text x="128" y="671" font-size="14">Block 2</text></g><g><line x1="282" x2="310" y1="666" y2="666" stroke="#16a34a" stroke-width="4"/><text x="318" y="671" font-size="14">Block 4</text></g><g><line x1="472" x2="500" y1="666" y2="666" stroke="#ea580c" stroke-width="4"/><text x="508" y="671" font-size="14">Block 8</text></g><g><line x1="662" x2="690" y1="666" y2="666" stroke="#9333ea" stroke-width="4"/><text x="698" y="671" font-size="14">Block 16</text></g><g><line x1="852" x2="880" y1="666" y2="666" stroke="#0891b2" stroke-width="4"/><text x="888" y="671" font-size="14">Block 32</text></g></g></svg>