<svg xmlns="http://www.w3.org/2000/svg" width="1100" height="720" viewBox="0 0 1100 720"><rect width="100%" height="100%" fill="#fff"/><text x="550" y="34" font-family="Arial, Helvetica, sans-serif" font-size="24" font-weight="700" text-anchor="middle">Speedup by Block Size</text><text x="550" y="706" font-family="Arial, Helvetica, sans-serif" font-size="16" text-anchor="middle">Matrix Width</text><text x="22" y="344" font-family="Arial, Helvetica, sans-serif" font-size="16" text-anchor="middle" transform="rotate(-90 22 344)">Speedup</text><g fill="#111827" font-family="Arial, Helvetica, sans-serif"><line x1="92" x2="1056" y1="616" y2="616" stroke="#111827"/><line x1="92" x2="92" y1="72" y2="616" stroke="#111827"/><line x1="92" x2="1056" y1="616" y2="616" stroke="#e5e7eb"/><text x="82" y="621" font-size="13" text-anchor="end">0</text><line x1="92" x2="1056" y1="480" y2="480" stroke="#e5e7eb"/><text x="82" y="485" font-size="13" text-anchor="end">570.34</text><line x1="92" x2="1056" y1="344" y2="344" stroke="#e5e7eb"/><text x="82" y="349" font-size="13" text-anchor="end">1.1e+3</text><line x1="92" x2="1056" y1="208" y2="208" stroke="#e5e7eb"/><text x="82" y="213" font-size="13" text-anchor="end">1.7e+3</text><line x1="92" x2="1056" y1="72" y2="72" stroke="#e5e7eb"/><text x="82" y="77" font-size="13" text-anchor="end">2.3e+3</text><line x1="92" x2="92" y1="616" y2="622" stroke="#111827"/><text x="92" y="640" font-size="13" text-anchor="middle">4</text><line x1="199.11" x2="199.11" y1="616" y2="622" stroke="#111827"/><text x="199.11" y="640" font-size="13" text-anchor="middle">8</text><line x1="306.22" x2="306.22" y1="616" y2="622" stroke="#111827"/><text x="306.22" y="640" font-size="13" text-anchor="middle">16</text><line x1="413.33" x2="413.33" y1="616" y2="622" stroke="#111827"/><text x="413.33" y="640" font-size="13" text-anchor="middle">32</text><line x1="520.44" x2="520.44" y1="616" y2="622" stroke="#111827"/><text x="520.44" y="640" font-size="13" text-anchor="middle">64</text><line x1="627.56" x2="627.56" y1="616" y2="622" stroke="#111827"/><text x="627.56" y="640" font-size="13" text-anchor="middle">128</text><line x1="734.67" x2="734.67" y1="616" y2="622" stroke="#111827"/><text x="734.67" y="640" font-size="13" text-anchor="middle">256</text><line x1="841.78" x2="841.78" y1="616" y2="622" stroke="#111827"/><text x="841.78" y="640" font-size="13" text-anchor="middle">512</text><line x1="948.89" x2="948.89" y1="616" y2="622" stroke="#111827"/><text x="948.89" y="640" font-size="13" text-anchor="middle">1024</text><line x1="1056" x2="1056" y1="616" y2="622" stroke="#111827"/><text x="1056" y="640" font-size="13" text-anchor="middle">2048</text><path fill="none" stroke="#2563eb" stroke-linecap="round" stroke-linejoin="round" stroke-width="3" d="M 92.00 615.94 L 199.11 615.95 L 306.22 615.96 L 413.33 615.95 L 520.44 615.88 L 627.56 615.02 L 734.67 613.08 L 841.78 597.74 L 948.89 591.04 L 1056.00 485.39"/><circle cx="92" cy="615.94" r="4" fill="#2563eb"/><circle cx="199.11" cy="615.95" r="4" fill="#2563eb"/><circle cx="306.22" cy="615.96" r="4" fill="#2563eb"/><circle cx="413.33" cy="615.95" r="4" fill="#2563eb"/><circle cx="520.44" cy="615.88" r="4" fill="#2563eb"/><circle cx="627.56" cy="615.02" r="4" fill="#2563eb"/><circle cx="734.67" cy="613.08" r="4" fill="#2563eb"/><circle cx="841.78" cy="597.74" r="4" fill="#2563eb"/><circle cx="948.89" cy="591.04" r="4" fill="#2563eb"/><circle cx="1056" cy="485.39" r="4" fill="#2563eb"/><path fill="none" stroke="#16a34a" stroke-linecap="round" stroke-linejoin="round" stroke-width="3" d="M 92.00 615.93 L 199.11 615.95 L 306.22 615.95 L 413.33 615.95 L 520.44 615.89 L 627.56 615.02 L 734.67 612.60 L 841.78 589.18 L 948.89 567.32 L 1056.00 303.83"/><circle cx="92" cy="615.93" r="4" fill="#16a34a"/><circle cx="199.11" cy="615.95" r="4" fill="#16a34a"/><circle cx="306.22" cy="615.95" r="4" fill="#16a34a"/><circle cx="413.33" cy="615.95" r="4" fill="#16a34a"/><circle cx="520.44" cy="615.89" r="4" fill="#16a34a"/><circle cx="627.56" cy="615.02" r="4" fill="#16a34a"/><circle cx="734.67" cy="612.6" r="4" fill="#16a34a"/><circle cx="841.78" cy="589.18" r="4" fill="#16a34a"/><circle cx="948.89" cy="567.32" r="4" fill="#16a34a"/><circle cx="1056" cy="303.83" r="4" fill="#16a34a"/><path fill="none" stroke="#ea580c" stroke-linecap="round" stroke-linejoin="round" stroke-width="3" d="M 199.11 615.95 L 306.22 615.95 L 413.33 615.95 L 520.44 615.88 L 627.56 615.00 L 734.67 611.43 L 841.78 587.41 L 948.89 548.92 L 1056.00 114.13"/><circle cx="199.11" cy="615.95" r="4" fill="#ea580c"/><circle cx="306.22" cy="615.95" r="4" fill="#ea580c"/><circle cx="413.33" cy="615.95" r="4" fill="#ea580c"/><circle cx="520.44" cy="615.88" r="4" fill="#ea580c"/><circle cx="627.56" cy="615" r="4" fill="#ea580c"/><circle cx="734.67" cy="611.43" r="4" fill="#ea580c"/><circle cx="841.78" cy="587.41" r="4" fill="#ea580c"/><circle cx="948.89" cy="548.92" r="4" fill="#ea580c"/><circle cx="1056" cy="114.13" r="4" fill="#ea580c"/><path fill="none" stroke="#9333ea" stroke-linecap="round" stroke-linejoin="round" stroke-width="3" d="M 306.22 615.95 L 413.33 615.91 L 520.44 615.85 L 627.56 615.03 L 734.67 611.30 L 841.78 585.70 L 948.89 536.11 L 1056.00 115.45"/><circle cx="306.22" cy="615.95" r="4" fill="#9333ea"/><circle cx="413.33" cy="615.91" r="4" fill="#9333ea"/><circle cx="520.44" cy="615.85" r="4" fill="#9333ea"/><circle cx="627.56" cy="615.03" r="4" fill="#9333ea"/><circle cx="734.67" cy="611.3" r="4" fill="#9333ea"/><circle cx="841.78" cy="585.7" r="4" fill="#9333ea"/><circle cx="948.89" cy="536.11" r="4" fill="#9333ea"/><circle cx="1056" cy="115.45" r="4" fill="#9333ea"/><path fill="none" stroke="#0891b2" stroke-linecap="round" stroke-linejoin="round" stroke-width="3" d="M 413.33 615.94 L 520.44 615.86 L 627.56 614.97 L 734.67 610.39 L 841.78 580.74 L 948.89 536.28 L 1056.00 112.30"/><circle cx="413.33" cy="615.94" r="4" fill="#0891b2"/><circle cx="520.44" cy="615.86" r="4" fill="#0891b2"/><circle cx="627.56" cy="614.97" r="4" fill="#0891b2"/><circle cx="734.67" cy="610.39" r="4" fill="#0891b2"/><circle cx="841.78" cy="580.74" r="4" fill="#0891b2"/><circle cx="948.89" cy="536.28" r="4" fill="#0891b2"/><circle cx="1056" cy="112.3" r="4" fill="#0891b2"/><g><line x1="92" x2="120" y1="666" y2="666" stroke="#2563eb" stroke-width="4"/><text x="128" y="671" font-size="14">Block 2</text></g><g><line x1="282" x2="310" y1="666" y2="666" stroke="#16a34a" stroke-width="4"/><text x="318" y="671" font-size="14">Block 4</text></g><g><line x1="472" x2="500" y1="666" y2="666" stroke="#ea580c" stroke-width="4"/><text x="508" y="671" font-size="14">Block 8</text></g><g><line x1="662" x2="690" y1="666" y2="666" stroke="#9333ea" stroke-width="4"/><text x="698" y="671" font-size="14">Block 16</text></g><g><line x1="852" x2="880" y1="666" y2="666" stroke="#0891b2" stroke-width="4"/><text x="888" y="671" font-size="14">Block 32</text></g></g></svg>