<svg xmlns="http://www.w3.org/2000/svg" width="1100" height="720" viewBox="0 0 1100 720"><rect width="100%" height="100%" fill="#fff"/><text x="550" y="34" font-family="Arial, Helvetica, sans-serif" font-size="24" font-weight="700" text-anchor="middle">Transfer Time vs GPU Processing Time</text><text x="550" y="58" font-family="Arial, Helvetica, sans-serif" font-size="15" text-anchor="middle">Block Size 16</text><text x="550" y="706" font-family="Arial, Helvetica, sans-serif" font-size="16" text-anchor="middle">Matrix Width</text><text x="22" y="344" font-family="Arial, Helvetica, sans-serif" font-size="16" text-anchor="middle" transform="rotate(-90 22 344)">Time (ms)</text><g fill="#111827" font-family="Arial, Helvetica, sans-serif"><line x1="92" x2="1056" y1="616" y2="616" stroke="#111827"/><line x1="92" x2="92" y1="72" y2="616" stroke="#111827"/><line x1="92" x2="1056" y1="616" y2="616" stroke="#e5e7eb"/><text x="82" y="621" font-size="13" text-anchor="end">0</text><line x1="92" x2="1056" y1="480" y2="480" stroke="#e5e7eb"/><text x="82" y="485" font-size="13" text-anchor="end">6.67</text><line x1="92" x2="1056" y1="344" y2="344" stroke="#e5e7eb"/><text x="82" y="349" font-size="13" text-anchor="end">13.34</text><line x1="92" x2="1056" y1="208" y2="208" stroke="#e5e7eb"/><text x="82" y="213" font-size="13" text-anchor="end">20.01</text><line x1="92" x2="1056" y1="72" y2="72" stroke="#e5e7eb"/><text x="82" y="77" font-size="13" text-anchor="end">26.68</text><text x="152.25" y="640" font-size="13" text-anchor="middle">16</text><text x="272.75" y="640" font-size="13" text-anchor="middle">32</text><text x="393.25" y="640" font-size="13" text-anchor="middle">64</text><text x="513.75" y="640" font-size="13" text-anchor="middle">128</text><text x="634.25" y="640" font-size="13" text-anchor="middle">256</text><text x="754.75" y="640" font-size="13" text-anchor="middle">512</text><text x="875.25" y="640" font-size="13" text-anchor="middle">1024</text><text x="995.75" y="640" font-size="13" text-anchor="middle">2048</text><rect width="36" height=".03" x="116.25" y="615.97" fill="#2563eb"/><rect width="36" height=".02" x="236.75" y="615.98" fill="#2563eb"/><rect width="36" height=".04" x="357.25" y="615.96" fill="#2563eb"/><rect width="36" height=".02" x="477.75" y="615.98" fill="#2563eb"/><rect width="36" height=".03" x="598.25" y="615.97" fill="#2563eb"/><rect width="36" height=".03" x="718.75" y="615.97" fill="#2563eb"/><rect width="36" height=".03" x="839.25" y="615.97" fill="#2563eb"/><rect width="36" height=".02" x="959.75" y="615.98" fill="#2563eb"/><rect width="36" height="5.22" x="152.25" y="610.78" fill="#16a34a"/><rect width="36" height="5.1" x="272.75" y="610.9" fill="#16a34a"/><rect width="36" height="5.29" x="393.25" y="610.71" fill="#16a34a"/><rect width="36" height="9" x="513.75" y="607" fill="#16a34a"/><rect width="36" height="12.52" x="634.25" y="603.48" fill="#16a34a"/><rect width="36" height="31.39" x="754.75" y="584.61" fill="#16a34a"/><rect width="36" height="97.84" x="875.25" y="518.16" fill="#16a34a"/><rect width="36" height="503.7" x="995.75" y="112.3" fill="#16a34a"/><g><line x1="92" x2="120" y1="666" y2="666" stroke="#2563eb" stroke-width="4"/><text x="128" y="671" font-size="14">Total Data Transfer Time</text></g><g><line x1="282" x2="310" y1="666" y2="666" stroke="#16a34a" stroke-width="4"/><text x="318" y="671" font-size="14">GPU Processing Time</text></g></g></svg>