<?xml version="1.0" encoding="UTF-8"?>
<svg xmlns="http://www.w3.org/2000/svg" width="1100" height="720" viewBox="0 0 1100 720">
  <rect width="100%" height="100%" fill="#ffffff" />
  <text x="550" y="34" text-anchor="middle" font-family="Arial, Helvetica, sans-serif" font-size="24" font-weight="700">Average GPU Total Time by Matrix Width</text>
  <text x="550" y="706" text-anchor="middle" font-family="Arial, Helvetica, sans-serif" font-size="16">Matrix Width</text>
  <text x="22" y="344" text-anchor="middle" transform="rotate(-90 22 344)" font-family="Arial, Helvetica, sans-serif" font-size="16">GPU Total Time (ms)</text>
  <g font-family="Arial, Helvetica, sans-serif" fill="#111827">
    <line x1="92" y1="616" x2="1056" y2="616" stroke="#111827" />
    <line x1="92" y1="72" x2="92" y2="616" stroke="#111827" />
    
          <line x1="92" y1="616.00" x2="1056" y2="616.00" stroke="#e5e7eb" />
          <text x="82" y="621.00" text-anchor="end" font-size="13">0.23</text>
          <line x1="92" y1="480.00" x2="1056" y2="480.00" stroke="#e5e7eb" />
          <text x="82" y="485.00" text-anchor="end" font-size="13">1.53</text>
          <line x1="92" y1="344.00" x2="1056" y2="344.00" stroke="#e5e7eb" />
          <text x="82" y="349.00" text-anchor="end" font-size="13">10.04</text>
          <line x1="92" y1="208.00" x2="1056" y2="208.00" stroke="#e5e7eb" />
          <text x="82" y="213.00" text-anchor="end" font-size="13">66.02</text>
          <line x1="92" y1="72.00" x2="1056" y2="72.00" stroke="#e5e7eb" />
          <text x="82" y="77.00" text-anchor="end" font-size="13">434.24</text>
    
          <line x1="92.00" y1="616" x2="92.00" y2="622" stroke="#111827" />
          <text x="92.00" y="640" text-anchor="middle" font-size="13">4</text>
          <line x1="199.11" y1="616" x2="199.11" y2="622" stroke="#111827" />
          <text x="199.11" y="640" text-anchor="middle" font-size="13">8</text>
          <line x1="306.22" y1="616" x2="306.22" y2="622" stroke="#111827" />
          <text x="306.22" y="640" text-anchor="middle" font-size="13">16</text>
          <line x1="413.33" y1="616" x2="413.33" y2="622" stroke="#111827" />
          <text x="413.33" y="640" text-anchor="middle" font-size="13">32</text>
          <line x1="520.44" y1="616" x2="520.44" y2="622" stroke="#111827" />
          <text x="520.44" y="640" text-anchor="middle" font-size="13">64</text>
          <line x1="627.56" y1="616" x2="627.56" y2="622" stroke="#111827" />
          <text x="627.56" y="640" text-anchor="middle" font-size="13">128</text>
          <line x1="734.67" y1="616" x2="734.67" y2="622" stroke="#111827" />
          <text x="734.67" y="640" text-anchor="middle" font-size="13">256</text>
          <line x1="841.78" y1="616" x2="841.78" y2="622" stroke="#111827" />
          <text x="841.78" y="640" text-anchor="middle" font-size="13">512</text>
          <line x1="948.89" y1="616" x2="948.89" y2="622" stroke="#111827" />
          <text x="948.89" y="640" text-anchor="middle" font-size="13">1024</text>
          <line x1="1056.00" y1="616" x2="1056.00" y2="622" stroke="#111827" />
          <text x="1056.00" y="640" text-anchor="middle" font-size="13">2048</text>
    
          <path d="M 92.00 72.00 L 199.11 613.40 L 306.22 616.00 L 413.33 611.01 L 520.44 603.93 L 627.56 579.93 L 734.67 544.68 L 841.78 458.84 L 948.89 361.53 L 1056.00 237.44" fill="none" stroke="#2563eb" stroke-width="3" stroke-linejoin="round" stroke-linecap="round" />
          <circle cx="92.00" cy="72.00" r="4" fill="#2563eb" /><circle cx="199.11" cy="613.40" r="4" fill="#2563eb" /><circle cx="306.22" cy="616.00" r="4" fill="#2563eb" /><circle cx="413.33" cy="611.01" r="4" fill="#2563eb" /><circle cx="520.44" cy="603.93" r="4" fill="#2563eb" /><circle cx="627.56" cy="579.93" r="4" fill="#2563eb" /><circle cx="734.67" cy="544.68" r="4" fill="#2563eb" /><circle cx="841.78" cy="458.84" r="4" fill="#2563eb" /><circle cx="948.89" cy="361.53" r="4" fill="#2563eb" /><circle cx="1056.00" cy="237.44" r="4" fill="#2563eb" />
          <path d="M 92.00 615.25 L 199.11 606.18 L 306.22 602.72 L 413.33 588.08 L 520.44 608.85 L 627.56 594.11 L 734.67 545.02 L 841.78 463.07 L 948.89 362.82 L 1056.00 238.27" fill="none" stroke="#dc2626" stroke-width="3" stroke-linejoin="round" stroke-linecap="round" />
          <circle cx="92.00" cy="615.25" r="4" fill="#dc2626" /><circle cx="199.11" cy="606.18" r="4" fill="#dc2626" /><circle cx="306.22" cy="602.72" r="4" fill="#dc2626" /><circle cx="413.33" cy="588.08" r="4" fill="#dc2626" /><circle cx="520.44" cy="608.85" r="4" fill="#dc2626" /><circle cx="627.56" cy="594.11" r="4" fill="#dc2626" /><circle cx="734.67" cy="545.02" r="4" fill="#dc2626" /><circle cx="841.78" cy="463.07" r="4" fill="#dc2626" /><circle cx="948.89" cy="362.82" r="4" fill="#dc2626" /><circle cx="1056.00" cy="238.27" r="4" fill="#dc2626" />
          <path d="M 92.00 608.55 L 199.11 614.67 L 306.22 606.92 L 413.33 602.03 L 520.44 595.47 L 627.56 571.48 L 734.67 534.51 L 841.78 469.14 L 948.89 363.99 L 1056.00 238.73" fill="none" stroke="#16a34a" stroke-width="3" stroke-linejoin="round" stroke-linecap="round" />
          <circle cx="92.00" cy="608.55" r="4" fill="#16a34a" /><circle cx="199.11" cy="614.67" r="4" fill="#16a34a" /><circle cx="306.22" cy="606.92" r="4" fill="#16a34a" /><circle cx="413.33" cy="602.03" r="4" fill="#16a34a" /><circle cx="520.44" cy="595.47" r="4" fill="#16a34a" /><circle cx="627.56" cy="571.48" r="4" fill="#16a34a" /><circle cx="734.67" cy="534.51" r="4" fill="#16a34a" /><circle cx="841.78" cy="469.14" r="4" fill="#16a34a" /><circle cx="948.89" cy="363.99" r="4" fill="#16a34a" /><circle cx="1056.00" cy="238.73" r="4" fill="#16a34a" />
    
        <g>
          <line x1="92" y1="666" x2="120" y2="666" stroke="#2563eb" stroke-width="4" />
          <text x="128" y="671" font-size="14">Global (avg across blocks)</text>
        </g>
        <g>
          <line x1="352" y1="666" x2="380" y2="666" stroke="#dc2626" stroke-width="4" />
          <text x="388" y="671" font-size="14">Pinned (avg across blocks)</text>
        </g>
        <g>
          <line x1="612" y1="666" x2="640" y2="666" stroke="#16a34a" stroke-width="4" />
          <text x="648" y="671" font-size="14">Unified (avg across blocks)</text>
        </g>
  </g>
</svg>
