<?xml version="1.0" encoding="UTF-8"?>
<svg xmlns="http://www.w3.org/2000/svg" width="1100" height="720" viewBox="0 0 1100 720">
  <rect width="100%" height="100%" fill="#ffffff" />
  <text x="550" y="34" text-anchor="middle" font-family="Arial, Helvetica, sans-serif" font-size="24" font-weight="700">Block Size with Best Speedup</text>
  <text x="550" y="706" text-anchor="middle" font-family="Arial, Helvetica, sans-serif" font-size="16">Matrix Width</text>
  <text x="22" y="344" text-anchor="middle" transform="rotate(-90 22 344)" font-family="Arial, Helvetica, sans-serif" font-size="16">Block Size</text>
  <g font-family="Arial, Helvetica, sans-serif" fill="#111827">
    <line x1="92" y1="616" x2="1056" y2="616" stroke="#111827" />
    <line x1="92" y1="72" x2="92" y2="616" stroke="#111827" />
    
          <line x1="92" y1="616.00" x2="1056" y2="616.00" stroke="#e5e7eb" />
          <text x="82" y="621.00" text-anchor="end" font-size="13">0</text>
          <line x1="92" y1="480.00" x2="1056" y2="480.00" stroke="#e5e7eb" />
          <text x="82" y="485.00" text-anchor="end" font-size="13">8.64</text>
          <line x1="92" y1="344.00" x2="1056" y2="344.00" stroke="#e5e7eb" />
          <text x="82" y="349.00" text-anchor="end" font-size="13">17.28</text>
          <line x1="92" y1="208.00" x2="1056" y2="208.00" stroke="#e5e7eb" />
          <text x="82" y="213.00" text-anchor="end" font-size="13">25.92</text>
          <line x1="92" y1="72.00" x2="1056" y2="72.00" stroke="#e5e7eb" />
          <text x="82" y="77.00" text-anchor="end" font-size="13">34.56</text>
    
          <line x1="92.00" y1="616" x2="92.00" y2="622" stroke="#111827" />
          <text x="92.00" y="640" text-anchor="middle" font-size="13">4</text>
          <line x1="199.11" y1="616" x2="199.11" y2="622" stroke="#111827" />
          <text x="199.11" y="640" text-anchor="middle" font-size="13">8</text>
          <line x1="306.22" y1="616" x2="306.22" y2="622" stroke="#111827" />
          <text x="306.22" y="640" text-anchor="middle" font-size="13">16</text>
          <line x1="413.33" y1="616" x2="413.33" y2="622" stroke="#111827" />
          <text x="413.33" y="640" text-anchor="middle" font-size="13">32</text>
          <line x1="520.44" y1="616" x2="520.44" y2="622" stroke="#111827" />
          <text x="520.44" y="640" text-anchor="middle" font-size="13">64</text>
          <line x1="627.56" y1="616" x2="627.56" y2="622" stroke="#111827" />
          <text x="627.56" y="640" text-anchor="middle" font-size="13">128</text>
          <line x1="734.67" y1="616" x2="734.67" y2="622" stroke="#111827" />
          <text x="734.67" y="640" text-anchor="middle" font-size="13">256</text>
          <line x1="841.78" y1="616" x2="841.78" y2="622" stroke="#111827" />
          <text x="841.78" y="640" text-anchor="middle" font-size="13">512</text>
          <line x1="948.89" y1="616" x2="948.89" y2="622" stroke="#111827" />
          <text x="948.89" y="640" text-anchor="middle" font-size="13">1024</text>
          <line x1="1056.00" y1="616" x2="1056.00" y2="622" stroke="#111827" />
          <text x="1056.00" y="640" text-anchor="middle" font-size="13">2048</text>
    
          <path d="M 92.00 584.52 L 199.11 584.52 L 306.22 553.04 L 413.33 364.15 L 520.44 490.07 L 627.56 112.30 L 734.67 364.15 L 841.78 112.30 L 948.89 112.30 L 1056.00 364.15" fill="none" stroke="#2563eb" stroke-width="3" stroke-linejoin="round" stroke-linecap="round" />
          <circle cx="92.00" cy="584.52" r="4" fill="#2563eb" /><circle cx="199.11" cy="584.52" r="4" fill="#2563eb" /><circle cx="306.22" cy="553.04" r="4" fill="#2563eb" /><circle cx="413.33" cy="364.15" r="4" fill="#2563eb" /><circle cx="520.44" cy="490.07" r="4" fill="#2563eb" /><circle cx="627.56" cy="112.30" r="4" fill="#2563eb" /><circle cx="734.67" cy="364.15" r="4" fill="#2563eb" /><circle cx="841.78" cy="112.30" r="4" fill="#2563eb" /><circle cx="948.89" cy="112.30" r="4" fill="#2563eb" /><circle cx="1056.00" cy="364.15" r="4" fill="#2563eb" />
          <path d="M 92.00 584.52 L 199.11 584.52 L 306.22 364.15 L 413.33 112.30 L 520.44 553.04 L 627.56 553.04 L 734.67 364.15 L 841.78 490.07 L 948.89 490.07 L 1056.00 364.15" fill="none" stroke="#dc2626" stroke-width="3" stroke-linejoin="round" stroke-linecap="round" />
          <circle cx="92.00" cy="584.52" r="4" fill="#dc2626" /><circle cx="199.11" cy="584.52" r="4" fill="#dc2626" /><circle cx="306.22" cy="364.15" r="4" fill="#dc2626" /><circle cx="413.33" cy="112.30" r="4" fill="#dc2626" /><circle cx="520.44" cy="553.04" r="4" fill="#dc2626" /><circle cx="627.56" cy="553.04" r="4" fill="#dc2626" /><circle cx="734.67" cy="364.15" r="4" fill="#dc2626" /><circle cx="841.78" cy="490.07" r="4" fill="#dc2626" /><circle cx="948.89" cy="490.07" r="4" fill="#dc2626" /><circle cx="1056.00" cy="364.15" r="4" fill="#dc2626" />
          <path d="M 92.00 553.04 L 199.11 553.04 L 306.22 364.15 L 413.33 364.15 L 520.44 364.15 L 627.56 112.30 L 734.67 112.30 L 841.78 112.30 L 948.89 364.15 L 1056.00 112.30" fill="none" stroke="#16a34a" stroke-width="3" stroke-linejoin="round" stroke-linecap="round" />
          <circle cx="92.00" cy="553.04" r="4" fill="#16a34a" /><circle cx="199.11" cy="553.04" r="4" fill="#16a34a" /><circle cx="306.22" cy="364.15" r="4" fill="#16a34a" /><circle cx="413.33" cy="364.15" r="4" fill="#16a34a" /><circle cx="520.44" cy="364.15" r="4" fill="#16a34a" /><circle cx="627.56" cy="112.30" r="4" fill="#16a34a" /><circle cx="734.67" cy="112.30" r="4" fill="#16a34a" /><circle cx="841.78" cy="112.30" r="4" fill="#16a34a" /><circle cx="948.89" cy="364.15" r="4" fill="#16a34a" /><circle cx="1056.00" cy="112.30" r="4" fill="#16a34a" />
    
        <g>
          <line x1="92" y1="666" x2="120" y2="666" stroke="#2563eb" stroke-width="4" />
          <text x="128" y="671" font-size="14">Global</text>
        </g>
        <g>
          <line x1="352" y1="666" x2="380" y2="666" stroke="#dc2626" stroke-width="4" />
          <text x="388" y="671" font-size="14">Pinned</text>
        </g>
        <g>
          <line x1="612" y1="666" x2="640" y2="666" stroke="#16a34a" stroke-width="4" />
          <text x="648" y="671" font-size="14">Unified</text>
        </g>
  </g>
</svg>
