<svg xmlns="http://www.w3.org/2000/svg" width="1100" height="720" viewBox="0 0 1100 720"><rect width="100%" height="100%" fill="#fff"/><text x="550" y="34" font-family="Arial, Helvetica, sans-serif" font-size="24" font-weight="700" text-anchor="middle">Best GPU Total Time by Matrix Width</text><text x="550" y="706" font-family="Arial, Helvetica, sans-serif" font-size="16" text-anchor="middle">Matrix Width</text><text x="22" y="344" font-family="Arial, Helvetica, sans-serif" font-size="16" text-anchor="middle" transform="rotate(-90 22 344)">GPU Total Time (ms)</text><g fill="#111827" font-family="Arial, Helvetica, sans-serif"><line x1="92" x2="1056" y1="616" y2="616" stroke="#111827"/><line x1="92" x2="92" y1="72" y2="616" stroke="#111827"/><line x1="92" x2="1056" y1="616" y2="616" stroke="#e5e7eb"/><text x="82" y="621" font-size="13" text-anchor="end">0.22</text><line x1="92" x2="1056" y1="480" y2="480" stroke="#e5e7eb"/><text x="82" y="485" font-size="13" text-anchor="end">0.72</text><line x1="92" x2="1056" y1="344" y2="344" stroke="#e5e7eb"/><text x="82" y="349" font-size="13" text-anchor="end">2.36</text><line x1="92" x2="1056" y1="208" y2="208" stroke="#e5e7eb"/><text x="82" y="213" font-size="13" text-anchor="end">7.77</text><line x1="92" x2="1056" y1="72" y2="72" stroke="#e5e7eb"/><text x="82" y="77" font-size="13" text-anchor="end">25.58</text><line x1="92" x2="92" y1="616" y2="622" stroke="#111827"/><text x="92" y="640" font-size="13" text-anchor="middle">4</text><line x1="199.11" x2="199.11" y1="616" y2="622" stroke="#111827"/><text x="199.11" y="640" font-size="13" text-anchor="middle">8</text><line x1="306.22" x2="306.22" y1="616" y2="622" stroke="#111827"/><text x="306.22" y="640" font-size="13" text-anchor="middle">16</text><line x1="413.33" x2="413.33" y1="616" y2="622" stroke="#111827"/><text x="413.33" y="640" font-size="13" text-anchor="middle">32</text><line x1="520.44" x2="520.44" y1="616" y2="622" stroke="#111827"/><text x="520.44" y="640" font-size="13" text-anchor="middle">64</text><line x1="627.56" x2="627.56" y1="616" y2="622" stroke="#111827"/><text x="627.56" y="640" font-size="13" text-anchor="middle">128</text><line x1="734.67" x2="734.67" y1="616" y2="622" stroke="#111827"/><text x="734.67" y="640" font-size="13" text-anchor="middle">256</text><line x1="841.78" x2="841.78" y1="616" y2="622" stroke="#111827"/><text x="841.78" y="640" font-size="13" text-anchor="middle">512</text><line x1="948.89" x2="948.89" y1="616" y2="622" stroke="#111827"/><text x="948.89" y="640" font-size="13" text-anchor="middle">1024</text><line x1="1056" x2="1056" y1="616" y2="622" stroke="#111827"/><text x="1056" y="640" font-size="13" text-anchor="middle">2048</text><path fill="none" stroke="#2563eb" stroke-linecap="round" stroke-linejoin="round" stroke-width="3" d="M 92.00 605.43 L 199.11 609.51 L 306.22 612.19 L 413.33 610.05 L 520.44 602.84 L 627.56 575.48 L 734.67 506.13 L 841.78 385.10 L 948.89 249.43 L 1056.00 72.00"/><circle cx="92" cy="605.43" r="4" fill="#2563eb"/><circle cx="199.11" cy="609.51" r="4" fill="#2563eb"/><circle cx="306.22" cy="612.19" r="4" fill="#2563eb"/><circle cx="413.33" cy="610.05" r="4" fill="#2563eb"/><circle cx="520.44" cy="602.84" r="4" fill="#2563eb"/><circle cx="627.56" cy="575.48" r="4" fill="#2563eb"/><circle cx="734.67" cy="506.13" r="4" fill="#2563eb"/><circle cx="841.78" cy="385.1" r="4" fill="#2563eb"/><circle cx="948.89" cy="249.43" r="4" fill="#2563eb"/><circle cx="1056" cy="72" r="4" fill="#2563eb"/><path fill="none" stroke="#dc2626" stroke-linecap="round" stroke-linejoin="round" stroke-width="3" d="M 92.00 609.22 L 199.11 611.39 L 306.22 616.00 L 413.33 612.28 L 520.44 605.23 L 627.56 577.57 L 734.67 509.75 L 841.78 386.62 L 948.89 249.51 L 1056.00 74.87"/><circle cx="92" cy="609.22" r="4" fill="#dc2626"/><circle cx="199.11" cy="611.39" r="4" fill="#dc2626"/><circle cx="306.22" cy="616" r="4" fill="#dc2626"/><circle cx="413.33" cy="612.28" r="4" fill="#dc2626"/><circle cx="520.44" cy="605.23" r="4" fill="#dc2626"/><circle cx="627.56" cy="577.57" r="4" fill="#dc2626"/><circle cx="734.67" cy="509.75" r="4" fill="#dc2626"/><circle cx="841.78" cy="386.62" r="4" fill="#dc2626"/><circle cx="948.89" cy="249.51" r="4" fill="#dc2626"/><circle cx="1056" cy="74.87" r="4" fill="#dc2626"/><path fill="none" stroke="#16a34a" stroke-linecap="round" stroke-linejoin="round" stroke-width="3" d="M 92.00 599.03 L 199.11 613.53 L 306.22 596.68 L 413.33 599.49 L 520.44 594.97 L 627.56 542.68 L 734.67 517.71 L 841.78 407.74 L 948.89 262.94 L 1056.00 93.43"/><circle cx="92" cy="599.03" r="4" fill="#16a34a"/><circle cx="199.11" cy="613.53" r="4" fill="#16a34a"/><circle cx="306.22" cy="596.68" r="4" fill="#16a34a"/><circle cx="413.33" cy="599.49" r="4" fill="#16a34a"/><circle cx="520.44" cy="594.97" r="4" fill="#16a34a"/><circle cx="627.56" cy="542.68" r="4" fill="#16a34a"/><circle cx="734.67" cy="517.71" r="4" fill="#16a34a"/><circle cx="841.78" cy="407.74" r="4" fill="#16a34a"/><circle cx="948.89" cy="262.94" r="4" fill="#16a34a"/><circle cx="1056" cy="93.43" r="4" fill="#16a34a"/><g><line x1="92" x2="120" y1="666" y2="666" stroke="#2563eb" stroke-width="4"/><text x="128" y="671" font-size="14">Global (best block)</text></g><g><line x1="352" x2="380" y1="666" y2="666" stroke="#dc2626" stroke-width="4"/><text x="388" y="671" font-size="14">Pinned (best block)</text></g><g><line x1="612" x2="640" y1="666" y2="666" stroke="#16a34a" stroke-width="4"/><text x="648" y="671" font-size="14">Unified (best block)</text></g></g></svg>