<?xml version="1.0" encoding="UTF-8"?>
<svg xmlns="http://www.w3.org/2000/svg" width="1100" height="720" viewBox="0 0 1100 720">
  <rect width="100%" height="100%" fill="#ffffff" />
  <text x="550" y="34" text-anchor="middle" font-family="Arial, Helvetica, sans-serif" font-size="24" font-weight="700">Transfer Time by Matrix Width (Block Size 16)</text>
  <text x="550" y="706" text-anchor="middle" font-family="Arial, Helvetica, sans-serif" font-size="16">Matrix Width</text>
  <text x="22" y="344" text-anchor="middle" transform="rotate(-90 22 344)" font-family="Arial, Helvetica, sans-serif" font-size="16">Transfer Time (ms)</text>
  <g font-family="Arial, Helvetica, sans-serif" fill="#111827">
    <line x1="92" y1="616" x2="1056" y2="616" stroke="#111827" />
    <line x1="92" y1="72" x2="92" y2="616" stroke="#111827" />
    
          <line x1="92" y1="616.00" x2="1056" y2="616.00" stroke="#e5e7eb" />
          <text x="82" y="621.00" text-anchor="end" font-size="13">1.2e-3</text>
          <line x1="92" y1="480.00" x2="1056" y2="480.00" stroke="#e5e7eb" />
          <text x="82" y="485.00" text-anchor="end" font-size="13">0.01</text>
          <line x1="92" y1="344.00" x2="1056" y2="344.00" stroke="#e5e7eb" />
          <text x="82" y="349.00" text-anchor="end" font-size="13">0.13</text>
          <line x1="92" y1="208.00" x2="1056" y2="208.00" stroke="#e5e7eb" />
          <text x="82" y="213.00" text-anchor="end" font-size="13">1.36</text>
          <line x1="92" y1="72.00" x2="1056" y2="72.00" stroke="#e5e7eb" />
          <text x="82" y="77.00" text-anchor="end" font-size="13">14.2</text>
    
          <line x1="92.00" y1="616" x2="92.00" y2="622" stroke="#111827" />
          <text x="92.00" y="640" text-anchor="middle" font-size="13">4</text>
          <line x1="199.11" y1="616" x2="199.11" y2="622" stroke="#111827" />
          <text x="199.11" y="640" text-anchor="middle" font-size="13">8</text>
          <line x1="306.22" y1="616" x2="306.22" y2="622" stroke="#111827" />
          <text x="306.22" y="640" text-anchor="middle" font-size="13">16</text>
          <line x1="413.33" y1="616" x2="413.33" y2="622" stroke="#111827" />
          <text x="413.33" y="640" text-anchor="middle" font-size="13">32</text>
          <line x1="520.44" y1="616" x2="520.44" y2="622" stroke="#111827" />
          <text x="520.44" y="640" text-anchor="middle" font-size="13">64</text>
          <line x1="627.56" y1="616" x2="627.56" y2="622" stroke="#111827" />
          <text x="627.56" y="640" text-anchor="middle" font-size="13">128</text>
          <line x1="734.67" y1="616" x2="734.67" y2="622" stroke="#111827" />
          <text x="734.67" y="640" text-anchor="middle" font-size="13">256</text>
          <line x1="841.78" y1="616" x2="841.78" y2="622" stroke="#111827" />
          <text x="841.78" y="640" text-anchor="middle" font-size="13">512</text>
          <line x1="948.89" y1="616" x2="948.89" y2="622" stroke="#111827" />
          <text x="948.89" y="640" text-anchor="middle" font-size="13">1024</text>
          <line x1="1056.00" y1="616" x2="1056.00" y2="622" stroke="#111827" />
          <text x="1056.00" y="640" text-anchor="middle" font-size="13">2048</text>
    
          <path d="M 306.22 355.64 L 413.33 354.24 L 520.44 345.10 L 627.56 308.95 L 734.67 275.26 L 841.78 208.59 L 948.89 146.76 L 1056.00 72.00" fill="none" stroke="#2563eb" stroke-width="3" stroke-linejoin="round" stroke-linecap="round" />
          <circle cx="306.22" cy="355.64" r="4" fill="#2563eb" /><circle cx="413.33" cy="354.24" r="4" fill="#2563eb" /><circle cx="520.44" cy="345.10" r="4" fill="#2563eb" /><circle cx="627.56" cy="308.95" r="4" fill="#2563eb" /><circle cx="734.67" cy="275.26" r="4" fill="#2563eb" /><circle cx="841.78" cy="208.59" r="4" fill="#2563eb" /><circle cx="948.89" cy="146.76" r="4" fill="#2563eb" /><circle cx="1056.00" cy="72.00" r="4" fill="#2563eb" />
          <path d="M 306.22 357.45 L 413.33 351.04 L 520.44 340.22 L 627.56 322.63 L 734.67 278.71 L 841.78 204.60 L 948.89 144.36 L 1056.00 72.15" fill="none" stroke="#dc2626" stroke-width="3" stroke-linejoin="round" stroke-linecap="round" />
          <circle cx="306.22" cy="357.45" r="4" fill="#dc2626" /><circle cx="413.33" cy="351.04" r="4" fill="#dc2626" /><circle cx="520.44" cy="340.22" r="4" fill="#dc2626" /><circle cx="627.56" cy="322.63" r="4" fill="#dc2626" /><circle cx="734.67" cy="278.71" r="4" fill="#dc2626" /><circle cx="841.78" cy="204.60" r="4" fill="#dc2626" /><circle cx="948.89" cy="144.36" r="4" fill="#dc2626" /><circle cx="1056.00" cy="72.15" r="4" fill="#dc2626" />
          <path d="M 306.22 599.73 L 413.33 616.00 L 520.44 588.00 L 627.56 616.00 L 734.67 612.95 L 841.78 612.95 L 948.89 611.48 L 1056.00 614.46" fill="none" stroke="#16a34a" stroke-width="3" stroke-linejoin="round" stroke-linecap="round" />
          <circle cx="306.22" cy="599.73" r="4" fill="#16a34a" /><circle cx="413.33" cy="616.00" r="4" fill="#16a34a" /><circle cx="520.44" cy="588.00" r="4" fill="#16a34a" /><circle cx="627.56" cy="616.00" r="4" fill="#16a34a" /><circle cx="734.67" cy="612.95" r="4" fill="#16a34a" /><circle cx="841.78" cy="612.95" r="4" fill="#16a34a" /><circle cx="948.89" cy="611.48" r="4" fill="#16a34a" /><circle cx="1056.00" cy="614.46" r="4" fill="#16a34a" />
    
        <g>
          <line x1="92" y1="666" x2="120" y2="666" stroke="#2563eb" stroke-width="4" />
          <text x="128" y="671" font-size="14">Global</text>
        </g>
        <g>
          <line x1="352" y1="666" x2="380" y2="666" stroke="#dc2626" stroke-width="4" />
          <text x="388" y="671" font-size="14">Pinned</text>
        </g>
        <g>
          <line x1="612" y1="666" x2="640" y2="666" stroke="#16a34a" stroke-width="4" />
          <text x="648" y="671" font-size="14">Unified</text>
        </g>
  </g>
</svg>
