<?xml version="1.0" encoding="UTF-8"?>
<svg xmlns="http://www.w3.org/2000/svg" width="1100" height="720" viewBox="0 0 1100 720">
  <rect width="100%" height="100%" fill="#ffffff" />
  <text x="550" y="34" text-anchor="middle" font-family="Arial, Helvetica, sans-serif" font-size="24" font-weight="700">CPU Time vs GPU Total Time</text>
  <text x="550" y="706" text-anchor="middle" font-family="Arial, Helvetica, sans-serif" font-size="16">Matrix Width</text>
  <text x="22" y="344" text-anchor="middle" transform="rotate(-90 22 344)" font-family="Arial, Helvetica, sans-serif" font-size="16">Time (ms)</text>
  <g font-family="Arial, Helvetica, sans-serif" fill="#111827">
    <line x1="92" y1="616" x2="1056" y2="616" stroke="#111827" />
    <line x1="92" y1="72" x2="92" y2="616" stroke="#111827" />
    
          <line x1="92" y1="616.00" x2="1056" y2="616.00" stroke="#e5e7eb" />
          <text x="82" y="621.00" text-anchor="end" font-size="13">0.01</text>
          <line x1="92" y1="480.00" x2="1056" y2="480.00" stroke="#e5e7eb" />
          <text x="82" y="485.00" text-anchor="end" font-size="13">0.15</text>
          <line x1="92" y1="344.00" x2="1056" y2="344.00" stroke="#e5e7eb" />
          <text x="82" y="349.00" text-anchor="end" font-size="13">2.24</text>
          <line x1="92" y1="208.00" x2="1056" y2="208.00" stroke="#e5e7eb" />
          <text x="82" y="213.00" text-anchor="end" font-size="13">33.44</text>
          <line x1="92" y1="72.00" x2="1056" y2="72.00" stroke="#e5e7eb" />
          <text x="82" y="77.00" text-anchor="end" font-size="13">500</text>
    
          <line x1="92.00" y1="616" x2="92.00" y2="622" stroke="#111827" />
          <text x="92.00" y="640" text-anchor="middle" font-size="13">4</text>
          <line x1="199.11" y1="616" x2="199.11" y2="622" stroke="#111827" />
          <text x="199.11" y="640" text-anchor="middle" font-size="13">8</text>
          <line x1="306.22" y1="616" x2="306.22" y2="622" stroke="#111827" />
          <text x="306.22" y="640" text-anchor="middle" font-size="13">16</text>
          <line x1="413.33" y1="616" x2="413.33" y2="622" stroke="#111827" />
          <text x="413.33" y="640" text-anchor="middle" font-size="13">32</text>
          <line x1="520.44" y1="616" x2="520.44" y2="622" stroke="#111827" />
          <text x="520.44" y="640" text-anchor="middle" font-size="13">64</text>
          <line x1="627.56" y1="616" x2="627.56" y2="622" stroke="#111827" />
          <text x="627.56" y="640" text-anchor="middle" font-size="13">128</text>
          <line x1="734.67" y1="616" x2="734.67" y2="622" stroke="#111827" />
          <text x="734.67" y="640" text-anchor="middle" font-size="13">256</text>
          <line x1="841.78" y1="616" x2="841.78" y2="622" stroke="#111827" />
          <text x="841.78" y="640" text-anchor="middle" font-size="13">512</text>
          <line x1="948.89" y1="616" x2="948.89" y2="622" stroke="#111827" />
          <text x="948.89" y="640" text-anchor="middle" font-size="13">1024</text>
          <line x1="1056.00" y1="616" x2="1056.00" y2="622" stroke="#111827" />
          <text x="1056.00" y="640" text-anchor="middle" font-size="13">2048</text>
    
          <path d="M 92.00 616.00 L 199.11 616.00 L 306.22 616.00 L 413.33 569.93 L 520.44 462.45 L 627.56 357.69 L 734.67 246.36 L 841.78 119.15 L 948.89 72.00 L 1056.00 72.00" fill="none" stroke="#dc2626" stroke-width="3" stroke-linejoin="round" stroke-linecap="round" />
          <circle cx="92.00" cy="616.00" r="4" fill="#dc2626" /><circle cx="199.11" cy="616.00" r="4" fill="#dc2626" /><circle cx="306.22" cy="616.00" r="4" fill="#dc2626" /><circle cx="413.33" cy="569.93" r="4" fill="#dc2626" /><circle cx="520.44" cy="462.45" r="4" fill="#dc2626" /><circle cx="627.56" cy="357.69" r="4" fill="#dc2626" /><circle cx="734.67" cy="246.36" r="4" fill="#dc2626" /><circle cx="841.78" cy="119.15" r="4" fill="#dc2626" /><circle cx="948.89" cy="72.00" r="4" fill="#dc2626" /><circle cx="1056.00" cy="72.00" r="4" fill="#dc2626" />
          <path d="M 92.00 456.64 L 199.11 459.12 L 306.22 447.30 L 413.33 403.24 L 520.44 450.96 L 627.56 440.72 L 734.67 400.38 L 841.78 333.03 L 948.89 249.74 L 1056.00 153.47" fill="none" stroke="#2563eb" stroke-width="3" stroke-linejoin="round" stroke-linecap="round" />
          <circle cx="92.00" cy="456.64" r="4" fill="#2563eb" /><circle cx="199.11" cy="459.12" r="4" fill="#2563eb" /><circle cx="306.22" cy="447.30" r="4" fill="#2563eb" /><circle cx="413.33" cy="403.24" r="4" fill="#2563eb" /><circle cx="520.44" cy="450.96" r="4" fill="#2563eb" /><circle cx="627.56" cy="440.72" r="4" fill="#2563eb" /><circle cx="734.67" cy="400.38" r="4" fill="#2563eb" /><circle cx="841.78" cy="333.03" r="4" fill="#2563eb" /><circle cx="948.89" cy="249.74" r="4" fill="#2563eb" /><circle cx="1056.00" cy="153.47" r="4" fill="#2563eb" />
          <path d="M 92.00 458.17 L 199.11 458.31 L 306.22 447.01 L 413.33 449.50 L 520.44 456.41 L 627.56 444.22 L 734.67 411.91 L 841.78 354.18 L 948.89 283.76 L 1056.00 198.28" fill="none" stroke="#16a34a" stroke-width="3" stroke-linejoin="round" stroke-linecap="round" />
          <circle cx="92.00" cy="458.17" r="4" fill="#16a34a" /><circle cx="199.11" cy="458.31" r="4" fill="#16a34a" /><circle cx="306.22" cy="447.01" r="4" fill="#16a34a" /><circle cx="413.33" cy="449.50" r="4" fill="#16a34a" /><circle cx="520.44" cy="456.41" r="4" fill="#16a34a" /><circle cx="627.56" cy="444.22" r="4" fill="#16a34a" /><circle cx="734.67" cy="411.91" r="4" fill="#16a34a" /><circle cx="841.78" cy="354.18" r="4" fill="#16a34a" /><circle cx="948.89" cy="283.76" r="4" fill="#16a34a" /><circle cx="1056.00" cy="198.28" r="4" fill="#16a34a" />
          <path d="M 199.11 438.61 L 306.22 441.27 L 413.33 446.90 L 520.44 456.10 L 627.56 442.11 L 734.67 411.94 L 841.78 360.09 L 948.89 296.77 L 1056.00 217.59" fill="none" stroke="#ea580c" stroke-width="3" stroke-linejoin="round" stroke-linecap="round" />
          <circle cx="199.11" cy="438.61" r="4" fill="#ea580c" /><circle cx="306.22" cy="441.27" r="4" fill="#ea580c" /><circle cx="413.33" cy="446.90" r="4" fill="#ea580c" /><circle cx="520.44" cy="456.10" r="4" fill="#ea580c" /><circle cx="627.56" cy="442.11" r="4" fill="#ea580c" /><circle cx="734.67" cy="411.94" r="4" fill="#ea580c" /><circle cx="841.78" cy="360.09" r="4" fill="#ea580c" /><circle cx="948.89" cy="296.77" r="4" fill="#ea580c" /><circle cx="1056.00" cy="217.59" r="4" fill="#ea580c" />
          <path d="M 306.22 461.15 L 413.33 458.04 L 520.44 446.23 L 627.56 443.75 L 734.67 414.34 L 841.78 356.43 L 948.89 298.19 L 1056.00 222.73" fill="none" stroke="#9333ea" stroke-width="3" stroke-linejoin="round" stroke-linecap="round" />
          <circle cx="306.22" cy="461.15" r="4" fill="#9333ea" /><circle cx="413.33" cy="458.04" r="4" fill="#9333ea" /><circle cx="520.44" cy="446.23" r="4" fill="#9333ea" /><circle cx="627.56" cy="443.75" r="4" fill="#9333ea" /><circle cx="734.67" cy="414.34" r="4" fill="#9333ea" /><circle cx="841.78" cy="356.43" r="4" fill="#9333ea" /><circle cx="948.89" cy="298.19" r="4" fill="#9333ea" /><circle cx="1056.00" cy="222.73" r="4" fill="#9333ea" />
          <path d="M 413.33 459.52 L 520.44 455.81 L 627.56 442.65 L 734.67 405.25 L 841.78 358.72 L 948.89 299.68 L 1056.00 222.61" fill="none" stroke="#0891b2" stroke-width="3" stroke-linejoin="round" stroke-linecap="round" />
          <circle cx="413.33" cy="459.52" r="4" fill="#0891b2" /><circle cx="520.44" cy="455.81" r="4" fill="#0891b2" /><circle cx="627.56" cy="442.65" r="4" fill="#0891b2" /><circle cx="734.67" cy="405.25" r="4" fill="#0891b2" /><circle cx="841.78" cy="358.72" r="4" fill="#0891b2" /><circle cx="948.89" cy="299.68" r="4" fill="#0891b2" /><circle cx="1056.00" cy="222.61" r="4" fill="#0891b2" />
    
        <g>
          <line x1="92" y1="666" x2="120" y2="666" stroke="#dc2626" stroke-width="4" />
          <text x="128" y="671" font-size="14">CPU Time</text>
        </g>
        <g>
          <line x1="282" y1="666" x2="310" y2="666" stroke="#2563eb" stroke-width="4" />
          <text x="318" y="671" font-size="14">GPU Total, Block 2</text>
        </g>
        <g>
          <line x1="472" y1="666" x2="500" y2="666" stroke="#16a34a" stroke-width="4" />
          <text x="508" y="671" font-size="14">GPU Total, Block 4</text>
        </g>
        <g>
          <line x1="662" y1="666" x2="690" y2="666" stroke="#ea580c" stroke-width="4" />
          <text x="698" y="671" font-size="14">GPU Total, Block 8</text>
        </g>
        <g>
          <line x1="852" y1="666" x2="880" y2="666" stroke="#9333ea" stroke-width="4" />
          <text x="888" y="671" font-size="14">GPU Total, Block 16</text>
        </g>
        <g>
          <line x1="92" y1="690" x2="120" y2="690" stroke="#0891b2" stroke-width="4" />
          <text x="128" y="695" font-size="14">GPU Total, Block 32</text>
        </g>
  </g>
</svg>
