<svg xmlns="http://www.w3.org/2000/svg" width="1100" height="720" viewBox="0 0 1100 720"><rect width="100%" height="100%" fill="#fff"/><text x="550" y="34" font-family="Arial, Helvetica, sans-serif" font-size="24" font-weight="700" text-anchor="middle">GPU Processing Time vs Block Size</text><text x="550" y="706" font-family="Arial, Helvetica, sans-serif" font-size="16" text-anchor="middle">Matrix Width</text><text x="22" y="344" font-family="Arial, Helvetica, sans-serif" font-size="16" text-anchor="middle" transform="rotate(-90 22 344)">GPU Processing Time (ms)</text><g fill="#111827" font-family="Arial, Helvetica, sans-serif"><line x1="92" x2="1056" y1="616" y2="616" stroke="#111827"/><line x1="92" x2="92" y1="72" y2="616" stroke="#111827"/><line x1="92" x2="1056" y1="616" y2="616" stroke="#e5e7eb"/><text x="82" y="621" font-size="13" text-anchor="end">0.15</text><line x1="92" x2="1056" y1="480" y2="480" stroke="#e5e7eb"/><text x="82" y="485" font-size="13" text-anchor="end">0.74</text><line x1="92" x2="1056" y1="344" y2="344" stroke="#e5e7eb"/><text x="82" y="349" font-size="13" text-anchor="end">3.59</text><line x1="92" x2="1056" y1="208" y2="208" stroke="#e5e7eb"/><text x="82" y="213" font-size="13" text-anchor="end">17.46</text><line x1="92" x2="1056" y1="72" y2="72" stroke="#e5e7eb"/><text x="82" y="77" font-size="13" text-anchor="end">84.94</text><line x1="92" x2="92" y1="616" y2="622" stroke="#111827"/><text x="92" y="640" font-size="13" text-anchor="middle">2</text><line x1="333" x2="333" y1="616" y2="622" stroke="#111827"/><text x="333" y="640" font-size="13" text-anchor="middle">4</text><line x1="574" x2="574" y1="616" y2="622" stroke="#111827"/><text x="574" y="640" font-size="13" text-anchor="middle">8</text><line x1="815" x2="815" y1="616" y2="622" stroke="#111827"/><text x="815" y="640" font-size="13" text-anchor="middle">16</text><line x1="1056" x2="1056" y1="616" y2="622" stroke="#111827"/><text x="1056" y="640" font-size="13" text-anchor="middle">32</text><path fill="none" stroke="#2563eb" stroke-linecap="round" stroke-linejoin="round" stroke-width="3" d="M 92.00 560.44 L 333.00 606.99 L 574.00 614.53 L 815.00 616.00 L 1056.00 603.55"/><circle cx="92" cy="560.44" r="4" fill="#2563eb"/><circle cx="333" cy="606.99" r="4" fill="#2563eb"/><circle cx="574" cy="614.53" r="4" fill="#2563eb"/><circle cx="815" cy="616" r="4" fill="#2563eb"/><circle cx="1056" cy="603.55" r="4" fill="#2563eb"/><path fill="none" stroke="#16a34a" stroke-linecap="round" stroke-linejoin="round" stroke-width="3" d="M 92.00 422.15 L 333.00 507.61 L 574.00 548.75 L 815.00 555.24 L 1056.00 552.06"/><circle cx="92" cy="422.15" r="4" fill="#16a34a"/><circle cx="333" cy="507.61" r="4" fill="#16a34a"/><circle cx="574" cy="548.75" r="4" fill="#16a34a"/><circle cx="815" cy="555.24" r="4" fill="#16a34a"/><circle cx="1056" cy="552.06" r="4" fill="#16a34a"/><path fill="none" stroke="#ea580c" stroke-linecap="round" stroke-linejoin="round" stroke-width="3" d="M 92.00 250.16 L 333.00 348.59 L 574.00 404.75 L 815.00 419.56 L 1056.00 420.77"/><circle cx="92" cy="250.16" r="4" fill="#ea580c"/><circle cx="333" cy="348.59" r="4" fill="#ea580c"/><circle cx="574" cy="404.75" r="4" fill="#ea580c"/><circle cx="815" cy="419.56" r="4" fill="#ea580c"/><circle cx="1056" cy="420.77" r="4" fill="#ea580c"/><path fill="none" stroke="#9333ea" stroke-linecap="round" stroke-linejoin="round" stroke-width="3" d="M 92.00 72.00 L 333.00 173.26 L 574.00 232.36 L 815.00 249.44 L 1056.00 249.79"/><circle cx="92" cy="72" r="4" fill="#9333ea"/><circle cx="333" cy="173.26" r="4" fill="#9333ea"/><circle cx="574" cy="232.36" r="4" fill="#9333ea"/><circle cx="815" cy="249.44" r="4" fill="#9333ea"/><circle cx="1056" cy="249.79" r="4" fill="#9333ea"/><g><line x1="92" x2="120" y1="666" y2="666" stroke="#2563eb" stroke-width="4"/><text x="128" y="671" font-size="14">Width 256</text></g><g><line x1="282" x2="310" y1="666" y2="666" stroke="#16a34a" stroke-width="4"/><text x="318" y="671" font-size="14">Width 512</text></g><g><line x1="472" x2="500" y1="666" y2="666" stroke="#ea580c" stroke-width="4"/><text x="508" y="671" font-size="14">Width 1024</text></g><g><line x1="662" x2="690" y1="666" y2="666" stroke="#9333ea" stroke-width="4"/><text x="698" y="671" font-size="14">Width 2048</text></g></g></svg>