<?xml version="1.0" encoding="UTF-8"?>
<svg xmlns="http://www.w3.org/2000/svg" width="1100" height="720" viewBox="0 0 1100 720">
  <rect width="100%" height="100%" fill="#ffffff" />
  <text x="550" y="34" text-anchor="middle" font-family="Arial, Helvetica, sans-serif" font-size="24" font-weight="700">GPU Processing Time by Block Size</text>
  <text x="550" y="706" text-anchor="middle" font-family="Arial, Helvetica, sans-serif" font-size="16">Matrix Width</text>
  <text x="22" y="344" text-anchor="middle" transform="rotate(-90 22 344)" font-family="Arial, Helvetica, sans-serif" font-size="16">GPU Processing Time (ms)</text>
  <g font-family="Arial, Helvetica, sans-serif" fill="#111827">
    <line x1="92" y1="616" x2="1056" y2="616" stroke="#111827" />
    <line x1="92" y1="72" x2="92" y2="616" stroke="#111827" />
    
          <line x1="92" y1="616.00" x2="1056" y2="616.00" stroke="#e5e7eb" />
          <text x="82" y="621.00" text-anchor="end" font-size="13">0.11</text>
          <line x1="92" y1="480.00" x2="1056" y2="480.00" stroke="#e5e7eb" />
          <text x="82" y="485.00" text-anchor="end" font-size="13">0.59</text>
          <line x1="92" y1="344.00" x2="1056" y2="344.00" stroke="#e5e7eb" />
          <text x="82" y="349.00" text-anchor="end" font-size="13">3.1</text>
          <line x1="92" y1="208.00" x2="1056" y2="208.00" stroke="#e5e7eb" />
          <text x="82" y="213.00" text-anchor="end" font-size="13">16.23</text>
          <line x1="92" y1="72.00" x2="1056" y2="72.00" stroke="#e5e7eb" />
          <text x="82" y="77.00" text-anchor="end" font-size="13">84.94</text>
    
          <line x1="92.00" y1="616" x2="92.00" y2="622" stroke="#111827" />
          <text x="92.00" y="640" text-anchor="middle" font-size="13">4</text>
          <line x1="199.11" y1="616" x2="199.11" y2="622" stroke="#111827" />
          <text x="199.11" y="640" text-anchor="middle" font-size="13">8</text>
          <line x1="306.22" y1="616" x2="306.22" y2="622" stroke="#111827" />
          <text x="306.22" y="640" text-anchor="middle" font-size="13">16</text>
          <line x1="413.33" y1="616" x2="413.33" y2="622" stroke="#111827" />
          <text x="413.33" y="640" text-anchor="middle" font-size="13">32</text>
          <line x1="520.44" y1="616" x2="520.44" y2="622" stroke="#111827" />
          <text x="520.44" y="640" text-anchor="middle" font-size="13">64</text>
          <line x1="627.56" y1="616" x2="627.56" y2="622" stroke="#111827" />
          <text x="627.56" y="640" text-anchor="middle" font-size="13">128</text>
          <line x1="734.67" y1="616" x2="734.67" y2="622" stroke="#111827" />
          <text x="734.67" y="640" text-anchor="middle" font-size="13">256</text>
          <line x1="841.78" y1="616" x2="841.78" y2="622" stroke="#111827" />
          <text x="841.78" y="640" text-anchor="middle" font-size="13">512</text>
          <line x1="948.89" y1="616" x2="948.89" y2="622" stroke="#111827" />
          <text x="948.89" y="640" text-anchor="middle" font-size="13">1024</text>
          <line x1="1056.00" y1="616" x2="1056.00" y2="622" stroke="#111827" />
          <text x="1056.00" y="640" text-anchor="middle" font-size="13">2048</text>
    
          <path d="M 92.00 613.82 L 199.11 616.00 L 306.22 602.47 L 413.33 594.94 L 520.44 607.61 L 627.56 600.06 L 734.67 538.79 L 841.78 406.63 L 948.89 242.26 L 1056.00 72.00" fill="none" stroke="#2563eb" stroke-width="3" stroke-linejoin="round" stroke-linecap="round" />
          <circle cx="92.00" cy="613.82" r="4" fill="#2563eb" /><circle cx="199.11" cy="616.00" r="4" fill="#2563eb" /><circle cx="306.22" cy="602.47" r="4" fill="#2563eb" /><circle cx="413.33" cy="594.94" r="4" fill="#2563eb" /><circle cx="520.44" cy="607.61" r="4" fill="#2563eb" /><circle cx="627.56" cy="600.06" r="4" fill="#2563eb" /><circle cx="734.67" cy="538.79" r="4" fill="#2563eb" /><circle cx="841.78" cy="406.63" r="4" fill="#2563eb" /><circle cx="948.89" cy="242.26" r="4" fill="#2563eb" /><circle cx="1056.00" cy="72.00" r="4" fill="#2563eb" />
          <path d="M 92.00 614.55 L 199.11 614.39 L 306.22 596.74 L 413.33 607.34 L 520.44 613.51 L 627.56 608.27 L 734.67 583.28 L 841.78 488.31 L 948.89 336.33 L 1056.00 168.77" fill="none" stroke="#16a34a" stroke-width="3" stroke-linejoin="round" stroke-linecap="round" />
          <circle cx="92.00" cy="614.55" r="4" fill="#16a34a" /><circle cx="199.11" cy="614.39" r="4" fill="#16a34a" /><circle cx="306.22" cy="596.74" r="4" fill="#16a34a" /><circle cx="413.33" cy="607.34" r="4" fill="#16a34a" /><circle cx="520.44" cy="613.51" r="4" fill="#16a34a" /><circle cx="627.56" cy="608.27" r="4" fill="#16a34a" /><circle cx="734.67" cy="583.28" r="4" fill="#16a34a" /><circle cx="841.78" cy="488.31" r="4" fill="#16a34a" /><circle cx="948.89" cy="336.33" r="4" fill="#16a34a" /><circle cx="1056.00" cy="168.77" r="4" fill="#16a34a" />
          <path d="M 199.11 575.10 L 306.22 610.52 L 413.33 600.31 L 520.44 613.48 L 627.56 605.77 L 734.67 590.48 L 841.78 527.62 L 948.89 390.00 L 1056.00 225.25" fill="none" stroke="#ea580c" stroke-width="3" stroke-linejoin="round" stroke-linecap="round" />
          <circle cx="199.11" cy="575.10" r="4" fill="#ea580c" /><circle cx="306.22" cy="610.52" r="4" fill="#ea580c" /><circle cx="413.33" cy="600.31" r="4" fill="#ea580c" /><circle cx="520.44" cy="613.48" r="4" fill="#ea580c" /><circle cx="627.56" cy="605.77" r="4" fill="#ea580c" /><circle cx="734.67" cy="590.48" r="4" fill="#ea580c" /><circle cx="841.78" cy="527.62" r="4" fill="#ea580c" /><circle cx="948.89" cy="390.00" r="4" fill="#ea580c" /><circle cx="1056.00" cy="225.25" r="4" fill="#ea580c" />
          <path d="M 306.22 614.85 L 413.33 613.53 L 520.44 590.51 L 627.56 611.15 L 734.67 591.89 L 841.78 533.82 L 948.89 404.15 L 1056.00 241.58" fill="none" stroke="#9333ea" stroke-width="3" stroke-linejoin="round" stroke-linecap="round" />
          <circle cx="306.22" cy="614.85" r="4" fill="#9333ea" /><circle cx="413.33" cy="613.53" r="4" fill="#9333ea" /><circle cx="520.44" cy="590.51" r="4" fill="#9333ea" /><circle cx="627.56" cy="611.15" r="4" fill="#9333ea" /><circle cx="734.67" cy="591.89" r="4" fill="#9333ea" /><circle cx="841.78" cy="533.82" r="4" fill="#9333ea" /><circle cx="948.89" cy="404.15" r="4" fill="#9333ea" /><circle cx="1056.00" cy="241.58" r="4" fill="#9333ea" />
          <path d="M 413.33 613.57 L 520.44 609.95 L 627.56 606.14 L 734.67 579.99 L 841.78 530.78 L 948.89 405.31 L 1056.00 241.91" fill="none" stroke="#0891b2" stroke-width="3" stroke-linejoin="round" stroke-linecap="round" />
          <circle cx="413.33" cy="613.57" r="4" fill="#0891b2" /><circle cx="520.44" cy="609.95" r="4" fill="#0891b2" /><circle cx="627.56" cy="606.14" r="4" fill="#0891b2" /><circle cx="734.67" cy="579.99" r="4" fill="#0891b2" /><circle cx="841.78" cy="530.78" r="4" fill="#0891b2" /><circle cx="948.89" cy="405.31" r="4" fill="#0891b2" /><circle cx="1056.00" cy="241.91" r="4" fill="#0891b2" />
    
        <g>
          <line x1="92" y1="666" x2="120" y2="666" stroke="#2563eb" stroke-width="4" />
          <text x="128" y="671" font-size="14">Block 2</text>
        </g>
        <g>
          <line x1="282" y1="666" x2="310" y2="666" stroke="#16a34a" stroke-width="4" />
          <text x="318" y="671" font-size="14">Block 4</text>
        </g>
        <g>
          <line x1="472" y1="666" x2="500" y2="666" stroke="#ea580c" stroke-width="4" />
          <text x="508" y="671" font-size="14">Block 8</text>
        </g>
        <g>
          <line x1="662" y1="666" x2="690" y2="666" stroke="#9333ea" stroke-width="4" />
          <text x="698" y="671" font-size="14">Block 16</text>
        </g>
        <g>
          <line x1="852" y1="666" x2="880" y2="666" stroke="#0891b2" stroke-width="4" />
          <text x="888" y="671" font-size="14">Block 32</text>
        </g>
  </g>
</svg>
