<svg xmlns="http://www.w3.org/2000/svg" width="1100" height="720" viewBox="0 0 1100 720"><rect width="100%" height="100%" fill="#fff"/><text x="550" y="34" font-family="Arial, Helvetica, sans-serif" font-size="24" font-weight="700" text-anchor="middle">Transfer Time vs GPU Processing Time</text><text x="550" y="58" font-family="Arial, Helvetica, sans-serif" font-size="15" text-anchor="middle">Block Size 16</text><text x="550" y="706" font-family="Arial, Helvetica, sans-serif" font-size="16" text-anchor="middle">Matrix Width</text><text x="22" y="344" font-family="Arial, Helvetica, sans-serif" font-size="16" text-anchor="middle" transform="rotate(-90 22 344)">Time (ms)</text><g fill="#111827" font-family="Arial, Helvetica, sans-serif"><line x1="92" x2="1056" y1="616" y2="616" stroke="#111827"/><line x1="92" x2="92" y1="72" y2="616" stroke="#111827"/><line x1="92" x2="1056" y1="616" y2="616" stroke="#e5e7eb"/><text x="82" y="621" font-size="13" text-anchor="end">0</text><line x1="92" x2="1056" y1="480" y2="480" stroke="#e5e7eb"/><text x="82" y="485" font-size="13" text-anchor="end">3.82</text><line x1="92" x2="1056" y1="344" y2="344" stroke="#e5e7eb"/><text x="82" y="349" font-size="13" text-anchor="end">7.65</text><line x1="92" x2="1056" y1="208" y2="208" stroke="#e5e7eb"/><text x="82" y="213" font-size="13" text-anchor="end">11.47</text><line x1="92" x2="1056" y1="72" y2="72" stroke="#e5e7eb"/><text x="82" y="77" font-size="13" text-anchor="end">15.29</text><text x="152.25" y="640" font-size="13" text-anchor="middle">16</text><text x="272.75" y="640" font-size="13" text-anchor="middle">32</text><text x="393.25" y="640" font-size="13" text-anchor="middle">64</text><text x="513.75" y="640" font-size="13" text-anchor="middle">128</text><text x="634.25" y="640" font-size="13" text-anchor="middle">256</text><text x="754.75" y="640" font-size="13" text-anchor="middle">512</text><text x="875.25" y="640" font-size="13" text-anchor="middle">1024</text><text x="995.75" y="640" font-size="13" text-anchor="middle">2048</text><rect width="36" height="3.66" x="116.25" y="612.34" fill="#2563eb"/><rect width="36" height="4.08" x="236.75" y="611.92" fill="#2563eb"/><rect width="36" height="4.92" x="357.25" y="611.08" fill="#2563eb"/><rect width="36" height="6.67" x="477.75" y="609.33" fill="#2563eb"/><rect width="36" height="14.24" x="598.25" y="601.76" fill="#2563eb"/><rect width="36" height="51.17" x="718.75" y="564.83" fill="#2563eb"/><rect width="36" height="144.78" x="839.25" y="471.22" fill="#2563eb"/><rect width="36" height="503.7" x="959.75" y="112.3" fill="#2563eb"/><rect width="36" height="4.08" x="152.25" y="611.92" fill="#16a34a"/><rect width="36" height="4.15" x="272.75" y="611.85" fill="#16a34a"/><rect width="36" height="5.49" x="393.25" y="610.51" fill="#16a34a"/><rect width="36" height="4.27" x="513.75" y="611.73" fill="#16a34a"/><rect width="36" height="5.4" x="634.25" y="610.6" fill="#16a34a"/><rect width="36" height="10.94" x="754.75" y="605.06" fill="#16a34a"/><rect width="36" height="53.03" x="875.25" y="562.97" fill="#16a34a"/><rect width="36" height="383.59" x="995.75" y="232.41" fill="#16a34a"/><g><line x1="92" x2="120" y1="666" y2="666" stroke="#2563eb" stroke-width="4"/><text x="128" y="671" font-size="14">Total Data Transfer Time</text></g><g><line x1="282" x2="310" y1="666" y2="666" stroke="#16a34a" stroke-width="4"/><text x="318" y="671" font-size="14">GPU Processing Time</text></g></g></svg>